<svg xmlns:rdf="http://www.w3.org/1999/02/22-rdf-syntax-ns#" xmlns="http://www.w3.org/2000/svg" xml:space="preserve" viewBox="0 0 512 512" version="1.2" xmlns:cc="http://creativecommons.org/ns#" xmlns:dc="http://purl.org/dc/elements/1.1/"><path style="fill:#ee3044" d="m10.604 11.256c5.578-5.918 14.907-6.211 20.813-0.633l261.4 245.8-50.353 21.576-231.87-246.55c-5.273-5.626-5.343-14.485 0-20.192"/><polygon points="187.5 388.18 212.91 362.77 219.26 369.12 231.96 356.41 225.62 350.07 276.44 299.24 187.5 261.13 162.08 286.55 155.73 280.19 143.02 292.9 149.39 299.24 123.97 324.66" transform="matrix(-1 0 0 1 512.99 .83923)"/><polygon points="123.97 350.07 111.26 337.35 22.337 426.29 35.036 439.01" transform="matrix(-1 0 0 1 512.99 .83923)"/><polygon points="149.38 375.48 136.68 362.77 47.751 451.7 60.449 464.41" transform="matrix(-1 0 0 1 512.99 .83923)"/><polygon points="73.153 477.12 85.862 489.82 174.8 400.88 162.09 388.18" transform="matrix(-1 0 0 1 512.99 .83923)"/><polygon points="3.276 458.06 54.103 508.88 66.795 496.17 15.985 445.35" transform="matrix(-1 0 0 1 512.99 .83923)"/><path d="m505.14 8.171c-5.613-5.955-14.964-6.25-20.919-0.637l-263.53 247.82 36.625 36.626 247.82-263.54c5.29-5.647 5.38-14.539 0-20.269" fill="#6DBE45"/><polygon points="2.936 445.92 15.695 458.68 2.936 471.43 41.213 509.72 53.972 496.96 66.742 509.72 168.8 407.64 105.02 343.84"/><polygon points="124.16 337.46 175.19 388.5 187.96 375.74 136.92 324.69"/><polygon points="149.68 311.93 200.71 362.98 213.48 350.22 162.43 299.17"/><polygon points="245.38 305.56 207.09 267.29 194.33 280.05 181.57 267.29 168.81 280.05 232.61 343.84 245.38 331.08 232.61 318.32"/></svg>
