<svg xmlns:rdf="http://www.w3.org/1999/02/22-rdf-syntax-ns#" xmlns="http://www.w3.org/2000/svg" height="257pt" width="300pt" version="1.0" preserveAspectRatio="xMidYMid meet" xmlns:cc="http://creativecommons.org/ns#" xmlns:dc="http://purl.org/dc/elements/1.1/" viewBox="0 0 300.000000 257.000000">
 <g transform="translate(0 257) scale(0.1 -0.1)" fill="#000000">
  <path d="m1115 2531c-51-32-67-59-63-103l4-40-23 27c-13 14-21 31-18 36 4 5-1 9-9 9-24 0-27-16-9-56 21-49 22-57 4-70-13-10-12-12 6-18 27-9 73-44 73-57 0-5-8-9-17-9-13 0-12-5 9-27 29-31 47-83 29-83-6 0-11-9-11-20 0-18-60-61-60-43 0 5-4 4-8-2-7-11-48-35-57-35-4 0-3 6 1 13s3 9-2 4-9-14-9-20c0-5-13-15-29-20-21-7-30-6-37 4-8 13-13 5-10-15 1-5-5-6-14-2-9 3-20 6-23 6-4 0 4 9 18 20 14 10 22 22 18 25-7 8-42-24-51-47-4-12 0-15 16-11 22 4 22 4 3-11-22-18-51-22-41-6 3 6 2 10-3 10s-12-8-15-19c-4-16-1-17 32-10 19 4 37 6 39 4s-17-24-42-50c-50-49-57-62-27-45 13 7 22 7 26 0 3-6 0-13-8-16-22-8-16-34 11-41 18-4 20-8 10-14-17-11-31-11-24 0 4 5-4 7-16 3-14-3-19-2-14 6 4 7 3 12-3 12-5 0-13-4-16-10-3-5-17-10-30-10s-27-5-31-12c-4-6-3-8 4-4 6 3 13 2 16-3s-1-12-10-15c-23-9-36-7-29 4 3 6-1 10-11 10-13 0-14 3-4 15 20 24-4 17-27-7-37-40-74-68-91-68-11 0-5 9 17 28 19 15 45 37 58 50 24 22 57 29 67 13 8-12 54-1 60 15 3 8 0 14-7 14-7 1-6 5 4 13 9 7 14 17 12 24-2 6 5 14 15 17 11 4 22 15 25 25 3 15 0 17-16 13-14-3-18-1-13 6 11 19-2 14-24-8-12-12-18-25-15-30 4-6-5-14-19-20-25-9-36-30-16-30 6 0 10 3 10 8 0 4 9 13 20 20 17 10 20 10 20-3 0-8-8-15-17-15-13 0-14-3-5-12 18-18 15-28-8-28-11 0-20 5-20 10 0 6-10 10-22 10-25-1-58-22-58-37 0-10-43-33-60-33-21 0-9 18 19 30 36 14 53 45 20 35-16-5-19-4-14 5 6 9 4 11-5 5-7-4-15-2-20 5-5 9-9 8-13-4-4-9 1-17 14-21 21-7 16-25-7-25-8 0-12 4-9 10 4 6-1 7-11 3-12-5-15-3-9 6 6 10 3 11-13 2-13-7-23-7-27-2-3 5 4 12 15 16 11 3 25 15 30 26 11 20 40 27 40 9 0-6 8-5 19 2s17 16 15 20c-3 4 4 8 15 8 12 0 21-4 21-10 0-5 4-10 10-10 5 0 7 7 4 15-4 8-10 15-16 15-5 0-16 6-24 14-12 13-11 15 8 18 12 2 23 10 26 18 4 12 2 13-9 3-15-15-49-17-49-4 0 5 18 12 40 16s40 11 40 16 9 9 20 9 20-4 20-10c0-5-6-10-14-10-20 0-29-17-15-26 7-4 9-3 6 3-4 5 12 16 33 23 23 7 40 20 40 28 0 12-3 12-15 2-10-9-15-9-15-1 0 6 3 11 8 12 4 0 19 2 35 4 15 2 27 2 27 0 0-10-48-55-59-55-6 0-11-4-11-9s-9-11-20-14c-20-5-28-27-10-27 6 0 10 5 10 10 0 6 9 10 19 10s21 7 25 15c3 8 13 15 21 15 9 0 14 4 10 9-3 6 4 15 15 21 12 6 19 18 16 25-3 8 3 17 15 20 10 4 19 10 19 15 0 4 9 10 20 13s20 0 20-6c0-12 14 0 16 14 1 5 3 11 4 14 3 7 7 23 9 36 0 6 8 9 16 5 9-3 15 1 15 11 0 12 3 13 13 4 8-6 17-7 22-3 4 4 6 0 3-8s-10-15-16-15c-7 0-12-4-11-10 1-5 5-9 10-7 5 1 9-2 9-7 0-6-9-9-19-8-11 0-18 4-15 8 2 4 0 10-6 14-9 5-15-18-7-29 1-2-6-13-16-24-12-13-15-22-8-27 6-3 11 0 11 8s7 20 15 27c9 8 15 9 15 2 0-6-5-14-10-17-6-4-7-11-4-17 3-5 11 0 18 12 6 13 15 22 20 21s14 8 21 21c6 13 17 22 24 20 7-1 10 2 6 8-3 5-1 10 4 10 18 0 12-19-10-30-11-7-18-14-16-17 14-14 45 20 51 55 10 67-17 134-76 186-28 24-56 42-63 40-6-3-18 2-25 11-17 20-1 20 69-1 29-8 55-13 58-11 2 3-5 8-17 12s-19 13-17 20c7 18-13 35-40 35-17 0-23 6-23 23 0 22-16 47-31 47-4 0-9-9-12-20s-18-25-34-31c-26-10-50-9-167 8-34 5-38 3-32-12 6-16 2-17-36-10-24 4-56 9-71 10-16 2-37 11-48 21-16 14-23 15-46 5-17-8-29-9-36-2-10 10-67-35-67-53 0-5 16-28 35-52 42-52 46-68 6-30-16 15-32 27-36 26s-10 2-13 6c-4 4-1 4 7-1 15-9 15-10-18 58-23 48-57 78-98 91-33 10-29-12 5-26 27-12 27-12-16-16-23-2-42-7-42-12 0-11 39-24 47-16 3 3 23-4 43-15 39-22 65-62 54-82-4-7-4-9 1-5 4 4 14 3 22-3 10-9 13-8 13 2 0 7 16-2 35-21s35-38 35-44c0-5-16 5-35 24s-35 30-35 26c0-5-7-3-15 4-10 8-15 9-15 2 0-6 7-15 15-20 9-4 20-21 25-38 10-29 10-29 5 5-5 33-5 34 14 17 15-13 18-26 14-52-5-29-3-33 11-28 25 10 20-23-9-52-14-14-25-28-25-33 0-11-47-31-54-24-12 12-6 40 8 40 8 0 12-6 9-14-3-7 0-13 6-13s11 7 11 15c0 9 7 18 15 21 9 4 20 15 26 26 7 13 7 18 1 14-6-3-13 2-15 11-4 16-5 16-6 1 0-9-17-25-37-34l-37-18-21 27c-12 15-27 27-34 27s-12 4-12 10c0 5 13 8 29 7s27-7 24-13c-2-6 3-17 12-24s15-8 15-2c0 22-21 67-37 80-13 9-14 15-5 24 16 16 28 3 52-58l19-49 1 48c0 33-4 49-15 53-8 4-12 10-9 15 3 6 1 16-5 23-7 8-10 20-9 27 2 8-7 15-19 17-28 4-29-8-3-31 11-9 20-22 20-28s-14 1-31 15-37 26-44 26c-25 0-29-23-7-41 12-9 22-22 22-27s10-16 22-24c21-14 18-15-41-14-43 1-65-3-68-11-3-9 6-13 26-13 17 0 31-4 31-10 0-5 8-10 19-10 10 0 27-12 37-27 18-27 20-32 23-52 0-5 9-17 19-27 13-14 17-34 17-93 0-42-4-88-9-103l-8-28 38 16c27 11 53 14 91 9l53-6-45-25c-26-13-51-24-56-24-25 0-154-109-223-187-53-59-76-94-81-121-4-20-10-41-15-47-21-28-31-95-31-212 1-158 11-223 48-291 15-30 38-72 50-95 25-47 197-216 240-236 36-17 45-22 76-44 14-10 36-19 49-20 12-2 43-13 66-26 24-12 50-20 58-17 7 3 31-1 53-9 22-7 41-12 44-9 2 2 72 6 154 8 112 3 159 8 182 20 17 9 34 15 38 14 21-5 187 45 208 64 5 4 20 8 33 8s33 5 45 12 29 13 37 15c14 2 41 16 132 68 26 14 27 14 38-19 18-54 36-64 61-32 30 38 35 25 8-21-14-25-20-46-15-58 6-16 10-14 32 18 13 20 32 37 41 37s30 15 47 33 23 23 13 11c-14-16-17-35-15-79 3-64 23-85 34-38 8 33 35 71 84 119 49 47 60 43 15-7-27-31-36-48-35-72 4-67 1-79-18-73s-164-35-185-52c-7-5-41-13-77-16-46-5-75-15-97-32-17-13-39-24-47-24-48 0-129-45-191-105-36-35-65-70-65-78s-7-20-15-27-17-28-21-47c-6-31-2-39 37-79 23-24 59-49 78-56 43-14 229-12 320 3 49 9 65 9 71-1 11-18 41-6 145 56 60 35 118 81 169 133 79 79 141 160 131 170-3 3-29-19-58-48s-65-60-80-68c-70-36-213-83-271-89-57-6-65-9-71-31-9-39-61-63-137-63-40 0-68-4-70-11-3-8-20-8-62 2-46 10-59 10-65 0-6-9-16-5-39 14-18 15-32 32-32 38 0 7 13 32 29 56 29 43 148 131 178 131 7 0 21 4 31 9 25 12 69 25 227 66 77 21 144 41 150 46 5 5 18 9 30 9 11 0 47 9 79 21 33 11 84 25 115 30 60 11 101 23 141 44 14 7 50 20 80 30s59 21 65 26c5 5 16 9 24 9s22 6 30 14c16 13 77 48 211 119 41 22 101 60 133 85 72 57 169 175 201 247 14 29 30 56 35 60 10 5 13 62 14 221 0 35-6 63-21 88-12 21-20 42-17 47 7 10-25 69-38 69-4 0-20 13-35 29-31 33-120 64-161 55-18-4-22-3-12 4 30 21 0 35-65 29-36-2-66-1-69 3-6 10-87-11-137-34-21-10-42-15-48-11-22 14-129-46-179-98-13-14-29-23-35-21-16 6-103-59-141-104-15-17-31-30-35-27-19 12-78-25-131-79-29-31-62-56-72-56-11 0-38-13-61-28-65-44-65-44-59-22 3 11 1 20-4 20-12 0-53-28-89-62l-32-30-78 27c-95 32-218 43-295 25-116-26-129-31-129-46 0-10 6-14 15-10 10 4 15-1 15-14 0-11-6-20-14-20-15 0-84 77-125 141-31 47-124 92-158 76-31-14-29-24 6-32 26-6 48-31 37-42-2-3-28-8-58-12-29-4-59-10-66-15-17-10-15-26 4-26 11 0 4-9-17-23-22-15-35-32-37-50-4-32 8-35 26-7 8 13 23 20 45 20 17 0 38 4 46 9 18 11 99-16 169-58 29-17 55-31 58-31s16-8 29-19l24-18-55-29c-51-27-56-28-65-12-9 15-22 17-96 13-81-5-89-3-145 27-107 57-168 134-182 228-5 32-2 55 8 76 19 37 198 214 217 214 8 0 33 18 57 40s46 40 51 40c4 0 16 9 27 21 10 12 45 39 77 62 31 22 57 43 57 47 0 3 14 25 32 47l31 42 27-37c14-20 50-76 80-124 29-49 57-88 62-88 4 0 6 17 2 38-7 46 24 92 62 92 20 0 23 4 19 23-7 30 29 86 65 100 29 11 41 27 20 27-5 0-10 20-10 44 0 33 7 52 27 76l26 31-39-6c-46-8-71-15-178-50-43-14-80-24-83-22-2 3 10 10 28 16 20 7 29 16 26 25-3 7 10 28 28 46 19 18 31 38 28 43-3 6-1 7 6 3 7-5 30 9 59 36 26 24 62 50 80 57 36 15 42 31 12 31-11 0-39 17-63 38-23 21-61 53-84 71-24 18-43 39-43 46 0 8-7 18-16 23-23 13-13 46 14 50 17 3 25-2 29-18 9-33 27-17 29 25 1 30-5 44-24 62-14 13-30 23-35 23-6 0-7 3-4 7 7 7-22 32-38 33-5 0-23-9-40-19zm3-32c-20-15-28-30-28-52 0-16 3-27 8-23 4 4 7 19 7 33 0 15 7 28 15 31 12 4 13 2 3-9-21-22-15-34 7-14 16 14 18 21 8 28-9 6-7 7 5 3 10-3 30-6 43-6s24-5 24-10c0-6-12-9-26-8-19 2-27-2-29-14-3-19 10-24 20-8 11 17 44 11 55-10 10-18 9-19-16-10-45 18-84-35-51-69 10-10 8-12-8-9-11 2-20 10-20 18 0 9-9 15-22 14-12 0-20 3-17 7 2 4 0 10-6 14-5 3-10-2-11-12 0-15-2-15-11 4-6 12-8 33-4 46 8 34 44 77 64 77 13-1 10-6-10-21zm-638-54c21-11 29-22 27-37-1-17 5-23 33-31 19-5 41-14 48-19 7-6 15-8 19-4 3 3 14-1 24-10 26-23 80-28 104-9 20 16 20 16-2 6-32-16-41-13-15 5 12 8 22 23 23 32 0 13 2 14 6 3 12-31 57-71 80-71 12 0 23 5 23 10 0 6-9 10-19 10-18 0-38 17-29 25 2 2 17 0 33-3 25-6 30-12 32-40 1-18-3-30-8-27s-6-1-3-9c3-9 1-16-5-16s-11-7-11-16c0-8-4-12-10-9s-7-1-4-10c5-11 2-14-12-9-15 5-16 4-5-4 8-6 20-8 28-5 7 3 13 1 13-5 0-5-18-9-40-9-29 0-44 5-50 18-7 12-7 20 0 24 5 3 10 19 10 36 0 21-5 29-17 29-15 0-16-2-3-10 10-6 1-8-28-5l-43 4 26-21c14-11 34-37 45-59 11-21 30-47 42-59 13-12 16-20 9-20-22 0-82 67-75 84 6 15-11 22-39 17-5-1-6 3-2 9 3 5-1 20-9 32-9 13-16 17-16 9s-10 1-22 19c-21 30-79 67-62 39 4-8-1-9-17-4-22 6-21 4 7-21 18-16 42-55 54-87 12-31 26-59 30-62 10-6-47 135-62 152-6 7-6 13-1 13 14 0 50-41 62-70 8-22 10-22 11-5 2 17 3 16 9-5 4-14 17-27 31-31 24-7 24-7 3-8-25-1-28-9-12-31 9-13 10-12 5 3-4 11 0 17 11 17 9 0 13-3 10-6-4-4 3-15 14-25 17-15 20-25 15-54-7-36-26-40-26-4 0 10-4 19-10 19-5 0-10-5-10-12 0-16-13-1-16 18-2 10 3 14 11 10 25-9 24 9-1 21-19 9-24 8-29-7-3-9-2-25 1-35 5-13 4-16-4-11-7 4-12 11-12 16 0 15-119 167-135 174-9 3-14 2-12-2 3-4-1-13-9-20-12-11-17-9-16 8 0 3-10 10-22 16-21 10-23 9-18-10 6-26 41-55 67-56 17 0 18-2 5-11-11-7-5-8 21-4 30 6 38 3 51-17 9-13 25-32 35-43 23-25 41-94 20-76-8 6-22 26-31 44-10 18-29 38-42 44-22 10-24 9-24-14 0-29-17-22-31 14-14 37-23 20-10-18 16-46 5-48-16-3-10 22-24 43-30 47-20 13-15 29 7 22 11-4 20-2 20 4s-5 11-12 11c-21 0-48 32-48 57 0 14-15 40-35 61-19 20-35 45-35 55 0 23 46 45 62 29 13-13 29-16 27-4-4 26 2 27 41 7zm405-5c-5-17-2-20 27-21l33-1-30-10c-16-5-46-9-65-9-29 0-32-2-14-9 12-5 24-13 28-18 8-13-51-7-69 8-21 17-21-7 1-38 8-12 13-22 10-22s-17 18-31 40c-28 45-55 51-105 25-30-16-80-11-80 6 0 13 50 31 67 24 10-3 13 1 8 14-6 19-4 19 47 5 70-18 96-18 138 5 19 10 36 19 38 20 2 0 0-8-3-19zm-327-22c-6-16-36-34-44-25-9 9 15 37 33 37 8 0 13-5 11-12zm32-7c0-5-7-14-15-21-12-10-15-10-15 2 0 8 3 18 7 21 9 10 23 9 23-2zm498-39c17 2 29-1 29-7s-15-11-33-10c-32 1-64 19-64 38 0 5 9 2 20-8 12-11 30-16 48-13zm-398-11c0-10-7-21-15-24-12-5-12-2-3 18 13 30 18 31 18 6zm433-38c9-3 17-1 17 4 0 11 45 11 56 0 4-4 2-7-4-7-7 0-12-8-12-17 0-15 2-15 9-4 15 24 40 5 36-26-2-15-4-34-4-41-1-7-5-11-10-7-5 3-8 22-5 43 2 20 2 31-2 25-8-17-34-16-34 1 0 8-7 16-15 20-21 7-19 4 15-51 17-26 30-50 30-55 0-6-63-38-76-38-2 0-4 7-4 15s-4 23-9 33c-5 9-13 31-17 47-6 18-21 36-40 45-40 20-24 42 21 28 17-5 38-12 48-15zm-873-15c0-13-23-5-28 10-2 7 2 10 12 6 9-3 16-11 16-16zm727-4c2-5-13-9-34-9-20 0-38 5-40 12-3 8 8 11 33 9 21-1 39-6 41-12zm-73-13c9-10 14-25 10-35-9-24-27-20-19 5 5 14 1 25-12 34-10 8-13 15-7 15s18-8 28-19zm66-17c0-9-5-12-11-8-7 4-10 1-7-7s10-14 16-14c5 0 14-3 18-7 11-11 24-10 24 2 0 6-7 10-15 10s-15 7-15 15c0 19 7 19 26 0 10-9 13-23 9-36-5-13-3-19 3-15 14 9 25-56 11-68-9-8-10-5-6 11 6 25-21 62-40 56-7-3-13 1-13 8s-3 9-6 6c-9-8-44 11-44 24 0 6 5 7 11 3 7-4 9 0 5 13-4 14-1 19 14 20 12 1 20-4 20-13zm310-32c0-8 11-23 25-34 25-20 33-52 15-63-6-4-7 1-3 11 4 12 3 15-5 10-7-4-12-1-12 8s-5 16-10 16c-7 0-8-6-2-16 11-20 4-60-14-75-12-10-13-8-5 13 5 14 6 31 1 39-5 7-6 33-3 57 5 38 3 44-15 49-12 3-19 9-16 14 7 12 44-13 44-29zm-756 22c23-9 20-23-4-17-11 3-20 9-20 14 0 11 3 11 24 3zm-95-37c-1-16-3-17-6-5-2 10-10 15-19 11-8-3-14 0-14 7 0 6 5 8 10 5 6-3 10-1 10 5s5 8 10 5c6-3 9-16 9-28zm831 7c0-8-6-11-15-8-8 4-15 9-15 13s7 8 15 8 15-6 15-13zm-394-18c15-16 18-26 6-26-4 0-13 9-20 20-14 23-7 26 14 6zm60 3c3-5 10-7 15-4 5 4 9 1 9-5s5-8 10-5c6 3 10 1 10-6s3-9 7-6c11 11 33-14 33-38 0-12-7-28-15-35-17-14-21 0-5 16 7 7 5 17-5 30-8 10-15 14-15 7 0-17-30-4-30 13 0 8-6 11-15 8-9-4-15 0-15 10 0 9-6 13-14 10s-17-1-20 4 6 10 19 10c14 0 28-5 31-9zm323-13c9-11 6-12-15-8-19 3-22 7-12 13 16 11 14 11 27-5zm-791-37c37-68 90-117 112-104 5 3-5 19-23 35s-27 30-20 30 16-8 22-17c14-26 25-9 11 17-16 30-1 40 19 12 55-78 100-116 87-74-8 23 36 28 54 7 7-8 21-15 31-15 11 0 19-4 19-10 0-5-9-10-19-10-11 0-23-4-26-10-3-5-32-9-63-9s-69-4-83-9c-14-6-50-9-80-7-51 2-56 5-86 46-38 51-40 72-13 99 11 11 20 27 20 35 0 25 20 17 38-16zm452-2c0-18-2-19-10-7-13 20-13 43 0 35 6-3 10-16 10-28zm314 9c-10-8-16-18-11-22 4-4 7-2 7 4 0 7 7 12 16 12 8 0 13-4 9-9-3-5-1-12 4-16 9-5 7-42-3-52-2-3-10 6-17 18-13 25-40 56-46 52-2-2-2 0-1 5 1 4 8 6 15 4s13 2 13 8c0 5 8 10 17 10 15 0 14-2-3-14zm-341-31c8-24 6-31-13-47-12-10-28-18-36-18s-14-4-14-9-7-11-15-15c-10-4-20 6-30 31-19 45-19 46 6 38 28-9 71 3 66 18-2 6-10 12-18 13-34 2-40 4-35 12 3 5 22 8 42 8 32-2 39-6 47-31zm297-35c0-11-7-37-15-57-8-19-15-48-15-64 0-19-6-30-20-34-12-4-32-24-47-46-14-21-27-39-28-39s-37 18-80 41c-88 45-124 68-110 70 6 1 15 2 20 3 18 3 139 65 205 105 74 46 90 49 90 21zm25 10c-3-5-1-10 5-10s8-4 5-10c-10-17-25-11-25 10 0 11 5 20 11 20 5 0 7-4 4-10zm-837-32c-2-6 8-25 23-41 27-29 44-67 31-67-4 0-13 14-21 31l-14 31-25-28c-16-19-23-22-19-11 4 10 7 25 7 33 0 9 5 12 10 9 6-3 10-1 10 4 0 10-14 15-32 12-12-2-9 24 4 37s31 6 26-10zm845-28c-3-11-14-25-25-31-20-11-20-10-2 20 21 35 35 41 27 11zm-821-80c-7-12-8-21-2-25 6-3 10-2 10 2 0 16 71 36 83 24 14-14 30-14 22-1-4 6 7 10 27 9 18 0 51 2 73 5 28 4 34 2 20-4-11-5-30-9-42-9-28-1-28-5-4-40 19-26 19-28 2-43-11-9-24-12-37-7-16 7-17 8-1 8 9 1 17 6 17 11 0 15-16 12-34-5-15-16-17-16-104 22-18 8-40 12-50 10-14-4-13-5 3-6 44-3 45-18 1-17-45 1-53 5-38 20 4 4 7 11 7 14 0 4 9 22 20 39 13 22 22 30 29 23s7-17-2-30zm972-22c-10-20-14-43-10-67 5-32 2-38-24-53-27-15-67-85-55-96 3-3-9-14-26-24-16-10-37-31-46-47l-16-28-67 101c-62 93-65 101-46 107 16 4 41-11 99-58 73-60 87-69 87-59 0 11-164 135-172 130-4-3-8 2-8 11s16 23 38 32c34 14 237 80 255 82 4 1 0-13-9-31zm-484-19c0-5 5-7 10-4 6 3 10 2 10-4 0-5 9-13 21-16 21-7 22-26 1-33-8-2-10 3-6 15 6 15 4 16-7 6-16-16-33-17-23-2 8 13-34 3-54-14-7-5-16-7-20-3s1 13 11 20c9 7 17 18 17 24 0 10 15 19 33 21 4 1 7-4 7-10zm-105-29c-3-5-15-10-26-10s-17 5-14 10c3 6 15 10 26 10s17-4 14-10zm238-32c31-12 34-20 10-39-15-12-16-12-11 3 8 21-14 18-40-6-15-13-21-14-25-4-3 9-18-1-44-29-35-36-38-42-23-50 14-6 16-13 9-30-4-13-13-23-19-23s-8 5-5 10c3 6 0 10-7 10-8 1-5 7 7 17 15 12 16 14 3 10-9-3-18-2-20 3s-9 6-16 1c-11-6-10-11 3-25 11-10 14-23 9-34-7-17-10-26-12-48-2-16-28-25-47-18-12 5-13 10-4 20 6 8 17 14 24 14s15 9 18 20c3 13 1 18-6 13-6-4-8 0-4 10 3 10 2 17-4 17s-7 5-4 10c11 17-14 38-37 32-14-3-19-1-14 6 3 6-2 13-11 15-12 3-8 5 9 6 15 0 30-3 33-9 10-16 75 23 125 74 28 29 51 44 60 40 8-3 27-11 43-16zm-121 1c17-9 18-13 7-20-21-13-32-11-26 5 4 10 1 13-9 9-16-6-19-33-3-33 5 0 7-4 4-10-3-5-11-10-16-10-6 0-7 5-3 11 4 8 0 9-15 4-12-4-21-2-21 4s5 11 10 11c6 0 10 6 10 14 0 13 13 23 33 25 5 1 18-4 29-10zm-392-9c-13-9-13-10 0-10 14-1-26-29-42-30-15 0 0 34 18 41 28 11 41 10 24-1zm513-64c-3-4-9-2-14 5-5 8-9 11-10 7-2-11-6-26-9-35-1-5-2-11-2-14 1-8-37-44-47-44-3 0-5-3-4-7 2-4-7-13-20-19-20-11-21-11-8 4 7 10 10 17 6 17-5 0 0 9 10 20 9 10 20 18 24 17 6-2 11 7 11 22 0 11-26 8-37-4-4-4-2-5 5-1 15 9 16-10 1-20-15-9-30 17-18 32 11 14 61 25 53 13-3-5 0-9 5-9 6 0 11 6 11 13 0 23 21 37 35 24 7-7 11-16 8-21zm-555 10c12-4 20-12 17-17s1-6 9-3c9 4 16 1 16-6 0-10 3-10 15 0 18 15 20 0 3-19-11-11-10-13 4-8 22 8 33-9 12-17-20-8-49-8-41 0 7 8-16 33-25 28-4-3-5-11-2-18 5-14-16-27-52-32-15-1-21 3-20 14 0 9-5 16-11 15-7-2-13 2-13 8 0 5-4 7-10 4-5-3-10-2-10 3 0 17 25 20 51 7 13-7 23-16 22-19-2-3-1-6 2-6h14c5 0 11 9 14 21 4 16 3 18-9 8-17-14-19 2-1 21 6 8 3 7-9-3-24-19-39-23-28-5 4 6 3 8-4 4-5-3-12-1-14 6-3 8-38-20-83-65-44-42-84-77-89-77s-7-3-3-6c3-3-11-31-32-63-20-31-48-89-60-129-13-40-27-74-31-77-3-2-5-18-2-35 3-21 9-30 18-26 18 7 64-10 64-24 0-6-11-8-25-6-15 3-25 0-26-7 0-9-2-9-6 0-3 10-8 10-19-1-9-9-14-36-14-71 0-31-5-66-12-78-10-20-10-21 5-8 15 12 17 11 18-10 1-17 3-19 6-6 9 35 123 74 123 42 0-9-8-12-20-10-11 2-18 0-15-6 4-5 1-9-6-9-16 0-2-15 14-15 7-1 15 4 20 10 8 11 27-11 27-31 0-14-32-13-42 1-4 6-8 2-8-7 0-16 6-20 26-17 8 1 24-22 24-34 0-5-4-5-10-2-5 3-10 2-10-3 0-15 28-22 33-9 3 7 12-4 21-23 16-33 17-15 1 23-9 23 18 23 36 0 12-15 12-16-4-10-11 4-16 3-12-3 3-5 8-23 10-40 3-27 2-29-16-20-10 6-19 18-19 28 0 15-2 15-10 2-5-8-10-10-10-5 0 6-5 2-11-8-6-9-14-15-19-12-4 3-6-5-2-17 4-16 2-19-9-13-8 5-11 5-7 0 4-4 3-16-3-27-12-22 14-61 46-66 11-2 22-7 25-11 24-34 41-50 80-76 25-16 47-32 50-35s17-11 33-17c23-11 27-10 27 3 0 14 3 14 15 4 9-7 15-8 15-2 0 5-7 12-15 16-19 7-8 36 14 37 10 0 11 2 3 6-6 2-9 10-5 16 12 20 14 47 2 47-5 0-7-4-4-10 10-16-21-11-35 6-8 8-23 20-34 26-21 11-21 11-2-11 20-22 20-22 0-15-17 7-18 6-5-10s12-16-12-5c-33 15-33 19-2 53 28 30 47 33 69 10 14-13 16-13 16-1 0 8-9 17-21 20s-18 10-14 16c3 6-1 11-9 11-9 0-16 5-16 11 0 7-8 18-17 25-10 7-13 14-7 14 16 0 64-43 64-58 0-7 7-12 15-12s15-5 15-12c0-8 5-7 15 3 28 28 4 56-44 50-7-2-10 2-7 8 3 5-10 15-29 21-20 7-43 22-51 36-9 13-25 26-35 29-12 4-22 19-26 36l-6 29-24-26c-18-20-27-24-36-15-8 8-8 14 2 24 8 6 11 7 8 1s0-11 8-11c10 0 9 8-6 36-10 20-19 55-19 78 0 24-4 43-10 43-5 0-10 14-10 31s-4 28-10 24c-6-3-10 1-10 9 0 9 6 13 14 10 17-6 29 33 16 55-10 18-15 18-36-3-16-16-44-11-44 8 0 6-5 4-10-4-8-13-10-12-10 4 0 20 0 20-15 0-16-22-20-6-6 28 5 13 12 35 15 49 8 36 42 45 50 14 3-13 3-31-1-41-6-15-7-15-15 5-9 25-28 20-28-7 0-12 9-18 25-20 16-1 25 3 25 13 0 8 4 15 9 15 6 0 4 15-4 34-8 18-12 36-9 39s-3 3-15 0-21-2-21 1c0 17 22 46 35 46 19 0 28 17 14 26-8 5-9 3-4-7 6-11 5-11-5-2-13 12-4 37 11 28 5-3 6 0 3 8-9 23 11 28 28 7 15-17 15-20 0-42-15-21-15-22 1-9 20 16 23 1 5-18-11-10-10-11 2-6 12 4 16-1 15-17 0-29-13-50-26-43-5 4-9 1-9-4 0-17 21-13 36 6 18 26 29 8 12-19-20-31-30-70-15-61 7 4 8 0 4-13-7-18-7-18 8 0 10 13 12 23 6 29-12 12 7 51 46 91 17 19 21 27 10 23-21-8-22 6-3 22 11 9 15 9 18 0 2-7 10-9 17-5 8 6 9 11 1 21-6 7-8 19-5 26 7 19 45 43 45 28 0-5 5-7 10-4 6 4 7 11 4 17-4 6 2 18 12 26 14 11 15 13 3 9-11-4-20 3-28 21-11 22-10 28 5 39 26 19 34 16 34-12 0-14 5-25 11-25 5 0 8-3 6-7-3-5 1-13 8-20 10-9 14-8 18 8 3 12 1 17-6 13-9-5-9-4-1 5 11 12 44 5 44-9 0-5-8-11-17-13-16-4-16-5-1-6 9 0 23 5 30 12 7 8 19 12 27 9s12 1 9 9c-3 9-17 13-34 11-28-2-28-2-10 13 23 17 36 19 36 5 0-18 18-10 23 10 3 11 13 20 22 20 10 0 15-5 12-13-4-11 6-11 56-2 33 6 63 17 65 24 3 10 0 11-16 2-12-6-23-7-26-2-3 4 6 13 20 20 31 14 37 14 29 1-3-5-1-10 5-10s8-4 5-10c-4-6 2-7 17-1 21 8 23 6 23-22 0-18-6-32-15-35-13-5-13-3-1 11 14 17 5 22-23 11-11-4-13-11-7-22 14-26 14-34-1-43-21-14-27-11-23 11 2 11-2 20-8 20-7 0-6 4 3 11 12 9 12 10-3 5-10-3-23-6-28-6s-4-10 3-22c7-13 11-27 10-31-1-5 2-6 8-2s9-3 7-17c-3-15-11-23-23-23-10 0-18 6-17 13 2 6-2 12-9 12-6 0-3 7 8 15 15 12 16 14 2 9-13-4-16-1-13 14 3 19 2 20-33 7-20-7-36-17-35-23 1-5-9-9-22-9-62 0-215-128-258-217-33-67-33-74-4-78 17-2 23-11 25-37 3-31 2-33-12-22-18 15-19 13-17-49 0-29-1-31-8-15-5 11-7 41-4 68 4 31 2 47-6 47-12 0-14-103-3-132 12-29 36-4 34 35-2 26 1 34 15 34 10 0 21-5 25-11 6-8 8-7 8 1 0 6-4 15-10 18-5 3-10 17-10 31 0 13 5 24 10 24 6 0 10-11 10-24s7-29 15-36 15-8 15-3 7 10 15 10c9 0 14-6 11-14s1-25 10-39c10-15 12-24 5-24-6 0-16 12-22 27-7 20-12 24-18 14-5-8-14-10-20-7-16 10-14-3 4-20 13-14 15-13 15 3 1 16 2 16 12-2 15-27 31-36 42-25 6 6 16 10 23 10 11 0 11-4 1-20-7-10-14-17-16-15-7 7-42-15-42-25 0-6 7-10 15-10s15 5 15 12c0 6 3 8 7 5 3-4 15 0 25 10 10 9 21 13 25 9s-2-15-14-24c-16-13-19-22-13-38 5-12 13-25 19-29 6-3 11-11 11-17s-7-5-17 3c-15 13-15 12-4-8 10-19 9-23-4-23-8 0-14 5-13 12 2 6-8 17-20 24-32 16-50 34-34 34 7 0 12-4 12-10 0-5 9-10 20-10 21 0 28 24 10 35-6 3-7-1-4-9 8-22-13-20-25 2-6 9-11 13-11 8-1-23-30 20-30 45 0 17-8 34-22 43-26 19-41 11-28-14 16-29 12-48-5-26-8 11-15 14-15 7s-5-9-10-6c-21 13 16-57 55-106l40-49 53 6c51 5 54 5 47-15-4-13-2-21 5-21 6 0 9 4 6 9s3 11 14 14c20 5 23-12 5-25-5-4 6-7 25-7 22 0 29 3 19 7-9 4-15 15-13 24 2 10 6 26 7 35 7 34 25 24 23-14l-1-38 65-6c35-4 66-11 68-18 5-16 22-14 22 4 0 17 16 21 22 5 2-7 15-7 38 0 50 14 80 13 80-5 0-24 32-18 110 19l71 34-33 25c-18 14-59 39-91 57-31 17-55 35-52 39 2 4-12 15-31 24-44 21-53 22-28 1 19-15 19-16-1-8-24 10-110 10-145 1l-25-7 25 12c14 7 31 18 38 25s23 14 35 14c13 1 8 4-13 8-33 7-31 8 26 15 66 8 104-3 152-47 32-29 27-12-9 34-20 26-39 39-54 39-28 0-43 19-25 30 30 18 65-13 130-115 11-16 39-43 63-60 40-27 78-85 56-85-5 0-9-7-9-15s5-15 10-15c14 0 70 29 70 36 0 3-5 2-11-2-16-9-30 18-17 33 6 7 7 13 3 13s-2 7 5 15c11 13 10 14-4 9-9-3-16-1-16 5s5 11 12 11c9 0 9 3 0 12-10 10-15 10-22-2-6-9-6-18 0-24s5-15-3-25c-9-12-9-13 1-7 6 4 12 2 12-3 0-19-28-12-33 9-7 28 4 100 15 100 5 0 6-5 3-10s-2-10 4-10c5 0 18-3 28-6 15-5 15-4 3 5-13 9-13 11 0 12 10 0 9 3-5 10-17 8-16 9 8 5 15-2 30 0 32 4 3 4 28 7 57 7 40 0 47-2 28-8l-25-7 27-1c14-1 28 4 30 10 4 13 58 1 58-13 0-6-11-7-27-3-34 8-20-9 16-20 16-5 21-4 17 4-4 6 0 11 11 11 15 0 16 2 3 10-13 9-13 10 0 9 20-1 58-17 42-18-17-1-43-27-35-35 10-10 25-7 18 4-3 5 14 14 37 21 41 10 43 10 65-18 13-16 23-22 23-14s3 11 6 8c4-4 30 14 58 39 48 43 51 45 60 25 8-19 11-19 64 20 36 25 62 37 74 33 13-4 37 14 88 67 56 57 74 70 92 66 17-5 37 9 96 64 48 46 79 68 89 65 9-4 34 11 66 40 71 63 136 101 147 84 7-11 19-8 62 13 72 34 116 48 120 36 2-6 27-6 66-1 62 9 72 6 51-15-7-7 12-12 63-16 83-6 108-14 108-32 0-7 13-18 29-25 16-6 39-23 51-37 20-23 20-26 5-37-16-11-15-14 8-29 39-25 64-134 32-134-8 0-15 8-15 17 0 40-36 114-78 161-59 65-108 89-187 88-33 0-54-3-47-6 16-6 15-23-2-23-7 0-19-7-26-15-14-17-7-19 20-5 13 7 21 7 25 0 3-5 1-10-5-10s-8-5-4-11c3-6 0-15-7-20-11-7-10-9 4-9 10 0 16-4 13-9-8-12-56-20-56-10 0 5 5 9 11 9 5 0 7 5 3 11-3 6 0 15 7 20 10 6 3 9-21 9-19 0-48-9-64-19-25-17-26-20-10-24 15-3 12-6-11-11-19-5-37-19-47-36s-28-32-45-35c-15-4-40-13-55-21-37-20-51-18-43 6 5 16 3 19-11 13-12-4-15-3-10 5s1 9-16 3c-13-4-23-15-23-22 0-18-44-25-47-7 0 7-2 18-2 23-1 6-5 16-9 23-5 6-5 17-2 22 3 6 3 10-1 10-10 0-137-96-159-121-28-31-111-91-178-129-31-17-57-38-57-46 0-7-18-25-39-38-22-14-43-31-47-38-6-10-3-9 9 1 10 8 17 9 17 3 0-15-41-42-53-35-5 3-3 10 4 15 11 7 11 8-1 6-9-2-17 1-19 7-3 9 42 40 97 64 12 6 22 13 22 16 0 6-51-13-65-25-6-5-49-25-95-45-47-20-89-43-93-51-6-11-12-12-21-5-7 6-17 6-26 1-13-9-13-10 0-10 11 0 10-3-4-11-14-9-20-8-26 2-7 10-19 8-62-9-35-14-45-21-30-21 29-1 20-17-13-23-15-3-29 0-33 8-5 9-16 11-32 7l-25-7 25-7 25-6-23-10c-19-7-21-11-10-20 16-13 79-23 72-11-3 4-16 8-30 8-13 0-24 5-24 10 0 6 4 10 9 10s23 3 41 7c26 5 31 3 25-7-5-9-4-11 4-6 6 4 9 12 6 17-4 5 0 12 9 15 8 3 13 11 10 19-3 7 4 15 15 18 23 6 29-8 9-16-8-3-5-6 5-6 10-1 16-5 13-10-3-4 6-6 21-3 18 3 24 1 19-7-4-6-2-11 3-11 6 0 11 6 11 14 0 21 38 30 58 15 9-7 14-9 10-5-4 5-3 15 3 23 9 9 8 13 0 13-6 0-11 5-11 10 0 6 9 10 21 10 11 0 17-4 14-10-3-5-1-10 6-10 9 0 9-3 0-14-9-10-9-15-1-18 7-2-5-11-25-21-32-15-37-16-32-2 5 11 0 15-16 15-15 0-18-3-9-8 9-6 5-12-15-21-19-9-29-9-31-2-5 15-23 14-19-1 1-7 7-16 12-21 6-4-15-5-45-2-35 3-50 1-41-5 12-7 9-10-13-16-20-5-24-9-15-15 11-6 10-9-4-15-22-8-12-24 16-23 21 0 21 1 2 9-18 7-19 8-3 15 10 4 16 11 13 15-7 11 19 17 79 19 50 1 58-6 16-14-12-2-25-7-29-11-3-4 2-5 11-1 10 3 19 0 22-9 3-8 2-13-3-9-5 3-17 2-26-1-16-7-16-8-1-16 11-6 22-6 31 2 8 6 20 9 27 5s4 0-6 9c-17 14-17 16-3 22 24 9 23 45 0 38-15-5-15-3 1 10 23 19 40 21 30 4-5-8-2-9 11-4 15 5 16 4 5-9-7-8-9-15-4-15s2-5-6-10c-12-8-12-10 5-10s17-2 5-10c-8-5-15-15-15-22s-9-15-20-18c-29-8-29-28 0-22 14 2 22 8 20 12-3 5-1 11 5 15s8 10 5 15c-4 7 33 8 54 1 2 0-2-8-9-16-10-13-15-13-21-3-6 9-10 8-15-5-10-28 4-32 29-9 36 34 47 28 32-15-9-24-20-37-29-37-9 1-13-3-10-8 4-6 0-14-7-19-19-12-66-11-74 1-7 12 41 44 54 35 7-3 8 0 5 9-7 17-20 21-28 8-3-5-19-7-36-4-17 2-30 0-30-7 0-6 6-8 14-5s17 0 21-6c5-8-2-11-21-8-31 3-47-14-17-18 24-4 63-26 63-35 0-5-12-12-27-15-16-4-37-13-48-20-25-18-50-18-65 1-18 22 32 44 57 24 15-12 16-12 8 1-6 8-10 18-10 22 0 3-4 10-9 15s-6 2-1-6c5-9 4-12-3-7-7 4-12 16-12 27 0 13-4 18-12 13-7-5-9-2-5 9 4 12 2 14-10 10-10-4-14-2-10 4s-3 8-18 5c-15-2-25 0-25 7s-4 9-10 6c-16-10-12-25 8-25 14 0 15-2 2-10-21-13-43-12-34 2 4 7 3 8-4 4s-36-8-64-8c-47-1-50-2-23-9 17-5 36-7 44-4 21 8 52-5 44-18-3-7 2-5 13 4 25 22 64 34 64 20 0-6-11-13-25-17-14-3-25-10-25-14 0-14 24-18 49-8 38 14 38 0 0-16-19-8-36-10-39-5s-23-3-44-17c-26-18-41-23-48-16-6 6-17 8-24 5-8-3-14-1-14 5 0 5-13 12-30 16-19 3-30 12-30 22 0 11 6 15 20 11 11-3 18-1 14 4-3 5-14 9-25 9-10 0-19 4-19 9s-9 7-20 4-26-1-33 5c-15 12-95 27-84 15 9-8 14-10 48-12 12-1 17-5 13-12s-23-9-53-5c-32 4-41 3-31-4 8-5 26-10 40-10 18 0 21-3 12-9-20-12 7-21 33-10 11 4 14 8 8 8-7 1-13 6-13 11 0 6 17 10 38 9 30 0 33-2 17-9s-17-9-3-9c9-1 21-9 26-18 6-9 29-24 53-34l44-18-40 3c-65 5-66 6-59 17 4 8 0 9-15 4-24-7-64 2-56 14 2 5-7 9-22 9-26 0-26-1-4-12 12-7 18-16 14-21-4-4 0-5 10-2 9 4 17 2 17-4s9-8 21-4 19 3 16-2c-4-6 33-9 89-8 65 1 98-3 105-12 8-9 4-14-18-18-15-4-40-13-55-21-14-8-40-14-56-14-17 0-34-4-37-10-3-5-21-10-40-10s-37-4-40-10c-11-18-71-11-90 10-10 11-14 20-9 21 5 0-1 4-13 9-14 6-32 6-45 0-23-9-23-9 2-10 23-1 70-30 70-44 0-3-20-6-44-6-33 0-52 6-73 25-27 24-27 24-5 25 14 0 22 6 22 17 0 13-3 14-12 5-7-7-21-12-32-12-18 0-18-2 4-26 21-21 22-27 10-35-24-15-62-1-94 34l-30 31 25 7c13 4 31 7 39 8 13 1 13 0 0-9-13-8-12-10 3-10 28 0 108 40 102 50-4 6-13 4-21-5-9-8-19-15-24-15s-17-3-27-7c-16-6-16-5-4 10 9 12 10 17 2 17-7 0-9 5-5 11 4 7-2 7-17-1-34-18-38-24-11-17 12 3 20 1 16-4-7-12-42-11-46 2-2 6-11 7-22 3-19-7-19-8 0-15 18-7 17-8-3-8-26-1-56 26-46 42 4 7 0 8-11 4-10-4-23-7-29-8-7 0-3-4 8-9 18-8 17-9-8-9-16-1-26 3-22 9 3 6 1 10-6 10s-9 3-6 6c3 4 2 14-3 23-15 30 3 44 49 36 23-4 39-10 36-15s1-11 7-13c8-3 5-6-6-6-16-1-15-4 8-22 22-17 30-19 39-9 10 10 8 12-7 6-14-5-17-2-14 12 9 32-10 50-57 58-25 3-45 10-45 15 0 11 16 11 38 0 28-14 84-22 77-11-3 6-17 10-31 10s-22 4-19 10c8 13 65 13 65 0 0-5 7-10 16-10 30 0-11 28-47 32l-34 4 40 8c27 6 40 6 43-3 2-6 17-11 33-11s29-4 29-9c0-6 16-7 37-4 26 4 34 3 29-5-4-7-1-12 8-12 8 0 21-3 30-6 11-4 16-1 16 10 0 9-6 16-12 15-26-3-39 1-33 11 3 6 20 10 36 10 18 0 28-4 24-10-3-5-2-10 4-10 25 0 19 21-8 26-17 4-31 11-31 16s-6 8-12 5c-7-2-13-10-13-18 0-9-13-15-40-16-38-2-39-2-12 8 31 12 36 35 7 35-22 0-27-12-7-19 6-2-3-7-21-12-21-4-38-3-45 4-6 6-22 12-36 12-17 1-20 3-8 6 25 7 17 37-10 39-37 3-43 5-43 15 0 6 16 9 38 7 21-2 36-8 35-15-3-12 110-30 155-25 12 2 22-2 22-8 0-5 11-10 25-10s25-4 25-8c0-5 14-6 31-4 21 3 30 1 25-6-4-7 5-9 30-5 27 4 35 3 30-5s1-12 18-12c13 0 31-2 39-5 8-4 14 0 14 9 0 8-6 12-14 9s-24-1-36 5-53 16-91 21c-79 12-112 31-52 31 22 0 35-4 31-10-3-6 1-7 9-4 22 9 10 24-19 24-13 0-27 5-30 10-8 13-52 13-60 0-4-6 7-8 27-4 28 5 30 4 14-7-20-13-110-14-129-2-42 27-166 46-153 24 4-5 0-12-6-14-8-3-6-6 5-6 11-1 15-6 11-13s-3-8 5-4c15 10 55-4 44-15-5-5-25-4-46 2s-46 8-55 6c-10-3-5-5 11-6 15 0 27-6 27-11 0-6 6-10 13-9 29 4 42-2 22-10-26-11-115 16-136 40-17 20-35 26-24 9 3-5-1-10-11-10-14 0-14-3-4-15 11-13 15-13 21-3 7 10 11 10 21 0 9-9 9-12-1-12-7 0-9-4-6-10 3-5-2-10-12-10-17-1-17-1 1-11 14-9 20-8 27 2 4 7 5 17 3 21-7 11 18 10 36-2 12-8 12-10-5-10s-17-2-5-10 12-10-5-10c-16 0-17-2-6-9s5-10-20-13c-21-2-33-8-32-15 2-7-7-13-18-13-18 0-19-2-9-15 13-16 31-20 28-7-3 17 16 42 33 42 23 0 14-30-10-31-12 0-12-2 4-9 20-9 20-9 0-10-17-2-16-3 5-10 20-6 14-8-30-10-30-1-48-4-39-7 9-2 21-19 27-38 9-30 8-35-6-35-22 0-82 37-82 50 0 6-4 8-10 5-15-9-64 21-79 49-8 14-17 23-21 21-11-7-58 33-65 55-4 11-20 27-36 36-35 17-69 69-69 102 0 13-4 21-9 17-15-8-31 29-32 72 0 30-2 34-9 18-7-18-9-18-20 10-6 16-9 40-7 52 2 13 0 23-4 23-14 0-11 124 4 140 10 11 9 11-7 0-18-14-18-12-13 30 4 25 8 72 9 105 2 40 10 71 23 90 11 17 18 36 17 42-6 29 67 122 97 124 10 0 12 2 4 6-20 7 12 48 71 90 28 21 56 43 61 50 27 33 84 46 133 29zm197-56c-3-5-1-10 4-10 6 0 11-4 11-10 0-14-47-13-56 1-3 6 0 15 7 20 19 12 42 11 34-1zm-287-26c22-15 22-17 7-34-15-16-15-19 1-35 15-14 15-18 3-26-11-7-11-9-1-9 22 0 3-19-41-40-51-25-55-25-32 0 10 12 25 18 32 16 7-3 15-1 18 4 4 6 1 10-6 10-8 0-7 5 2 17 10 11 10 14 2 9-7-4-13-3-13 3 0 5 4 12 9 15s7 15 4 27c-5 16-8 18-15 7-7-9-8-8-5 7 2 11 9 19 16 17 7-1 10 2 6 8-4 7-16 3-32-10-33-26-44-17-12 9 29 25 29 25 57 5zm98-20c-16-11-17-14-4-14 9 0 18 7 22 15 3 8 12 15 21 15 25 0 17-18-17-34-25-13-33-14-40-4-12 19-10 26 9 37 25 14 32 2 9-15zm-149-61c-26-29-36-20-11 9l19 23-23-20c-20-16-25-17-32-5-15 24-12 33 10 27 11-3 22-1 26 4 3 5 11 3 19-4 11-10 10-16-8-34zm493 29c0-11-41-34-48-28-3 4 3 13 14 21 21 16 34 19 34 7zm-527-91c-10-15-10-20 0-24 9-3 9-8-2-20-17-22-32-22-24 0 4 11 3 14-5 9-16-9-15 7 0 22 9 9 9 12-1 12-7 0-9 5-5 12 4 6 3 8-4 4-17-10-24 11-11 35l11 22 26-27c23-22 25-29 15-45zm47 40c0-5-7-14-15-21-12-10-15-10-15 2 0 8 3 18 7 21 9 10 23 9 23-2zm434-23c-3-4 3-5 13-2 16 5 16 4-1-10-25-20-30-20-47 0-11 14-10 18 6 30 14 11 21 11 26 2 4-7 5-16 3-20zm-131 11c-19-19 23-52 57-46 33 7 44-1 29-20-13-15-33-18-24-3 3 6 2 10-4 10-5 0-13-9-16-21-4-11-18-24-31-30-14-5-22-13-19-19s-1-7-10-4c-9 4-14 8-11 11 2 2-6 15-19 29l-23 25-27-27c-14-14-29-23-33-19-4 3 8 19 26 35l33 28-33 7c-30 7-31 8-13 21 24 18 41 18 26 1-8-11-6-13 11-13 15 1 30-11 47-36 13-21 28-35 34-31 5 3 5 8-2 13-7 4-13 16-14 27-1 14-6 19-17 15-13-5-13-4 0 13 14 17 13 18-2 12-26-9-22 8 5 21 29 14 44 15 30 1zm2074-34c0-8-4-15-9-15s-7-4-3-9c3-6-2-14-11-19-13-7-6-12 32-22 27-7 53-12 57-12 4 1 10-4 13-12s12-12 20-9 14 0 14-6 14-10 32-9c26 2 33-1 36-17 2-11 0-16-5-10-10 12-33 18-33 7 1-19 18-32 35-26 15 6 17 4 11-19-4-18-3-26 5-25 6 2 12-7 14-19 1-13-2-23-7-23-4 0-8-5-8-11s9-9 19-6c22 6 31-25 31-109 0-51-1-54-20-42-20 13-20 31-4 118 4 19 2 22-6 10-5-8-10-10-10-5 0 6-4 4-9-3-6-10-12-6-25 14-10 14-13 23-7 20 6-4 11 0 11 9s5 13 10 10c6-3 10-1 10 4 0 6-4 11-10 11-5 0-10 9-10 20s-6 19-12 17c-7-1-14 8-16 21-2 12-7 20-12 17s-15 4-23 15c-7 11-17 17-21 13s-9 3-12 14c-5 18-10 20-31 12-31-11-46-12-39 0 10 16-23 34-49 27-21-5-25-3-23 11 2 10 12 21 23 25 19 6 19 6-2 7-33 2-39 21-6 22 25 0 26 1 8 9-17 7-15 9 11 9 21 1 31-4 31-14zm-2393-44c-25-21-53-57-36-47 6 4 12 3 12-3 0-20-19-21-25-1-4 14 3 29 27 53 18 18 35 29 37 24 2-6-5-18-15-26zm2475 1c9-10 12-12 7-5-12 19-1 27 13 10 17-21 3-51-16-36-7 7-27 13-44 14-33 3-46 11-36 22 4 3 18 1 32-5s25-8 25-3-11 12-25 15c-14 4-25 11-25 16 0 14 48-6 69-28zm-2275 22c13-5 14-9 5-20-6-8-16-14-21-14-6 0-5 7 2 15 15 18-1 20-18 3-8-8-8-17-1-31 7-13 8-22 1-29-14-14-4-38 15-38 13 0 13-3 3-15-14-17-35-21-25-5 3 6 2 10-4 10-5 0-9-8-8-19 1-24 23-21 43 7 12 18 19 20 35 12 29-16 23-31-8-24-25 7-27 6-14-10 8-9 11-19 7-23-9-9-46-11-46-2s-20 6-37-4c-8-5-13-3-13 7 0 8 5 18 10 21 17 10 12 45-5 39-8-4-15-2-15 4 0 5 7 15 15 22 12 10 15 10 15-1 0-8 6-3 13 11 16 30 13 38-8 20-24-20-31-3-9 22 19 22 19 22-1 8-10-8-29-26-41-40s-26-21-30-17c-13 13 83 94 113 96 6 1 19-2 27-5zm54-40c-3-3 6-17 20-31 19-19 23-28 13-31-7-2-17 2-22 9-5 8-9 10-9 5 0-6-6-2-13 9-8 10-19 15-25 11-16-10-15-27 1-20 7 2 22-4 32-16 10-11 13-20 7-20-7 0-12 4-12 9s-11 8-25 7c-15-2-22 1-18 7s0 8-10 4c-10-3-17-3-17 1 0 9 62 61 74 62 5 0 7-3 4-6zm2008-11c-2-10-13-20-26-21-14-2-20 0-16 7 4 6 1 11-6 11-20 0 13 20 34 20 10 0 15-7 14-17zm284-15c0-5-4-6-10-3-5 3-10 1-10-5s-4-8-10-5c-5 3-10 11-10 16 0 6 5 7 12 3 8-5 9-2 4 11-5 15-4 16 9 5 8-7 15-17 15-22zm-180-9c-21-6-11-14 12-10 4 0 28-10 52-24 30-16 46-21 48-13 4 12 28 3 28-11 0-13-44-6-83 13-21 11-52 19-68 20-19 1-28 6-26 16 3 21 16 28 41 22 20-6 20-6-4-13zm-2259-22c-6-6-11-18-11-27s-10-25-22-36c-18-16-21-17-15-2 4 13 2 15-10 11-12-5-14-3-8 8 8 12 6 12-8 0-18-14-24-36-7-26 6 3 10 0 10-8 0-10 7-13 19-10 23 6 31-6 20-32-7-19-8-19-8-1-1 20-1 20-16 0-14-19-14-19-15 1-1 11-4 14-7 8-8-22-21-14-16 10 6 21 6 21-15-3-29-35-27-23 10 51 24 50 32 60 37 45 6-17 9-16 31 7 14 14 28 23 33 20s4-10-2-16zm2159 1c0-9 3-9 12 0 7 7 19 12 27 12 27 0-6-23-36-25-15-2-36-6-45-10-12-4-18-3-18 5 0 9-4 9-12 2-7-5-24-13-38-17-23-7-24-6-9 10 26 27 119 45 119 23zm198-6c5-17-13-15-27 2-10 12-9 14 5 12 10-2 20-8 22-14zm-618-27c-11-13-10-14 3-9 16 6 18-10 4-33-6-9-3-11 10-7 17 5 17 5 1-8-15-13-15-15 2-26 13-8 21-8 26-1 3 6 11 8 18 6 7-3 23 4 37 14 13 11 17 17 8 14-10-4-16 0-16 9 0 11 5 13 19 5 24-13 23-21-6-49-15-13-31-20-41-16-9 3-14 2-11-2 7-12-100-112-121-112-5 0-20-11-33-25s-29-25-37-25c-7 0-13-4-13-9 0-12-64-81-75-81-4 0 0 11 9 25s14 30 11 35c-3 6 0 10 8 10s21 7 28 16c12 15 10 15-23 1-31-13-37-13-42-1-3 7-1 16 4 19 6 4 10 1 10-6 0-8 4-8 15 1 8 7 24 10 35 7 12-3 30 3 43 14l22 18-23-4c-13-2-32-7-42-10-21-7-36 10-19 21 8 5 9 3 4-7-8-12-6-12 8 0 22 18 21 20-6 16-19-4-23 0-22 21 0 14 8 30 19 36 16 9 18 8 13-5-4-12-2-14 11-10 14 6 15 4 5-8-9-11-8-18 2-32 17-24 26-8 16 29-6 24-3 32 15 46 33 26 41 22 14-7-21-23-20-30 4-26 13 3 36-20 30-31-3-5-11-5-19 2-10 8-15 8-20-1-4-6-2-15 5-19 15-9 39-2 41 11 1 5 2 13 3 18 2 14 16 26 16 14 0-8 8-8 25 0 31 15 33 27 3 19-20-5-21-3-10 10 7 9 22 13 36 11 13-3 27 0 30 6 5 7-4 11-22 11-30 0-50 24-31 35 5 4 7 10 4 15s3 13 12 19c10 6 13 11 6 11-6 0-15-5-18-11-4-6-13-8-20-5-7 2-21-4-31-15-18-20-34-25-34-11 0 8 49 40 65 41 6 1 10 6 10 11 0 6 7 15 15 20 21 14 24 12 10-5zm563-2c18-10 34-21 35-25 2-5 8-8 14-8 20 0 78-74 84-108 9-48-3-138-23-170-25-38-180-196-212-215-15-9-46-22-69-30-51-18-112-58-112-73 0-12-21-22-103-49-63-20-107-43-107-55 0-6-12-10-27-10-72-1-193-46-193-71 0-5-10-9-22-9-13-1-34-7-48-15-35-20-61-19-32 1 12 8 22 26 22 39 0 66 212 385 255 385 6 0 21 11 32 24s27 26 34 28 10 9 6 15c-9 15-84-2-118-26l-26-19 22 63c12 34 25 67 29 73 14 23-15 22-46-1-18-14-58-37-88-51l-55-27 36 33c44 40 78 68 84 68 11 0 114 83 119 96 3 8 11 14 19 14 7 0 24 11 37 25s30 25 37 25c8 0 24 7 36 15 13 8 32 16 42 18 11 1 25 5 30 9 6 4 47 13 90 22 44 8 89 17 100 19 45 10 89 6 118-10zm-2283-12c0-5-6-14-14-21-20-16-9-40 17-40 63 0 72-14 15-23-44-6-57 0-51 24 3 10 0 19-6 19-7 0-5 9 5 25 16 25 34 33 34 16zm2400-21c0-11 6-19 12-17 7 1 14-9 15-23s0-19-3-12c-3 6-12 12-19 12-22 0-48 42-32 52 20 13 27 9 27-12zm-715-30c-11-5-16-9-11-9 5-1 3-7-3-15-9-11-8-15 5-20 12-5 14-9 5-20-6-7-9-15-6-18 3-2-8-3-24 0-20 3-28 9-24 18 3 8 9 12 13 9 5-3 12 0 16 6 4 7 3 9-4 5-5-3-12 0-15 6-3 10-12 8-36-5-18-11-35-17-37-14-9 8 47 46 60 41 7-3 19 2 26 11 7 8 22 15 34 14 20 0 21-1 1-9zm-1905-44c0-7-9-16-20-19-13-3-20 0-20 10 0 8 5 11 10 8 6-3 10-1 10 4 0 6 5 11 10 11 6 0 10-6 10-14zm245-15c7-12-32-34-45-26-6 3-10 0-11-7 0-7-4-4-9 7-8 18-9 18-9 2-1-24-21-11-21 14 0 16 7 19 44 19 25 0 47-4 51-9zm365-21c0-13-11-13-30 0-12 8-11 10 8 10 12 0 22-4 22-10zm-640-31c0-11-4-17-10-14-5 3-10 0-10-7 0-10-3-9-11 2-9 13-10 13-6 0 2-8 15-15 28-15 25 1 39-11 39-32 0-7-11-10-30-8-16 2-30 0-30-5 0-6-9-10-19-10-11 0-23-4-26-10-15-24-23-6-23 48 0 31 2 59 3 62 2 3 24 6 49 7 40 1 46-1 46-18zm265-6c-21-15-30-10-22 11 4 10 13 13 23 9 15-6 15-7-1-20zm1482-2c-2-10-9-27-17-38-12-15-12-16 0-5 23 20 35 14 15-8-10-11-22-20-27-20-12 0-10 34 4 48 7 7 8 12 4 12-5 0-3 7 4 15 16 20 20 19 17-4zm958-61l-16-31 27 7c23 6 26 4 21-10-4-10-7-22-7-27 0-6-4-8-9-5s-14-15-21-40c-15-51-76-138-94-131-20 8-64-36-68-67-2-21-9-30-25-32-13-2-23 1-23 6 0 6 4 10 10 10 5 0 14 9 20 20 9 16 8 20-6 20-8 0-21-13-27-29s-20-34-31-40c-13-6-16-10-7-10 11-1 10-5-5-17-18-14-18-15 4-4 12 6 20 15 17 21-4 5-2 9 4 9 21 0 20-20-1-32-29-15-80-20-71-5 3 6 1 7-6 3-6-4-9-12-5-17 3-6-4-19-17-30-28-24-27-24-21 6 2 14 9 22 15 18 5-3 7-1 4 4-7 11 15 35 29 32 20-3 35 2 29 10-3 5 5 17 17 25 12 9 19 16 16 16-10 0-93-50-164-97-75-51-182-105-256-127-32-10-58-22-58-27 0-9 34 2 72 22 18 10 20 9 15-5-7-17 10-17 58-1 20 7 20 7 0-9-11-9-25-14-32-12-7 3-15 1-18-4-7-11-87-11-101 1s-41 2-48-17c-4-11-2-12 14-4 23 12 33 13 26 1-3-4 7-6 22-4 24 4 25 3 9-7-10-7-27-10-37-7-20 5-45-15-33-26 3-4 2-7-3-7-6 0-15 5-22 12-9 9-15 8-24-4-7-9-30-21-52-27-39-10-41-7-7 13 10 6 31 20 46 30 21 15 28 17 35 7 4-7 10-9 13-4s2 14-2 21c-9 15-91-15-88-32 1-6-9-11-23-12-51-2-59-4-74-20-9-8-14-19-11-24 3-4-9-13-25-19-18-6-30-6-30 0 0 5 4 9 9 9s11 6 14 13c4 10-2 13-19 9-13-2-21-8-18-13s-3-12-13-16-24-13-32-20c-7-8-22-11-32-8-11 4-19 2-19-5 0-6-6-10-12-7-7 2-12 10-11 16 2 6-2 11-8 11s-9-9-6-19c6-25-23-33-41-11-8 8-11 10-8 4 11-23-23-37-76-32-42 5-49 3-35-7s13-12-15-13c-17 0-34-5-37-10-11-18-52-24-69-11-9 7-14 10-10 5 13-16-24-40-64-42-38-2-68-17-56-29 3-3 13 1 21 10 9 8 18 11 21 7 3-5-20-22-52-38-31-16-58-35-58-42-1-7-2-16-3-22 0-5-7-10-15-10-19 0-26-22-21-65 3-19 1-35-4-35s-8 11-6 25c2 20 0 23-11 14-24-20-17 24 11 65 14 20 25 40 25 44 0 5 25 32 56 61 59 56 113 85 179 96 22 4 45 14 52 22 16 20 110 41 162 37 23-2 41 0 41 6s-6 10-12 11c-37 2 78 32 141 38 71 6 74 7 57 23-13 13-15 22-7 35 9 16 10 16 11-4 0-13 2-23 4-23 22 0 165 53 161 59-8 14 75 42 145 50 42 4 64 11 63 19-4 15 35 35 122 61 72 22 121 53 111 70-6 10 72 43 132 56 21 4 36 15 42 30 10 26 33 38 47 24 6-6 15-3 24 8 13 16 12 17-3 4-26-20-22 3 5 35 17 20 24 23 24 11 0-9-5-13-10-10-6 4-7 1-3-6 6-9 13-8 28 6 29 26 86 99 69 89-9-6-12-5-9 5 3 8 10 13 16 12 6-2 17 7 23 20 11 20 11 21-4 8-20-16-22-8-5 22 6 12 12 33 13 46 0 14 6 26 13 29 7 2 13 18 13 35 2 30 2 30 6 5 2-15-3-41-12-58zm-2431 34c9-24 0-29-18-11-8 8-12 17-9 21 11 10 21 7 27-10zm1421-8c-14-21-14-25 0-39 10-11 12-18 4-22-5-4-14-18-19-31-7-17-17-24-36-24h-27l27 25c14 13 26 27 26 31s-13-5-29-20c-16-16-34-25-40-22-6 4-20 2-31-4-29-15-25 5 5 24 15 10 25 12 25 6s14-2 30 10c34 24 43 58 11 40-11-5-23-10-28-10-4 1 3 7 16 14 14 8 32 11 40 8 9-3 12-1 7 6-3 6 2 15 11 21 25 15 25 14 8-13zm-1520-45c3-10 5-23 3-27-1-5 4-20 11-33 12-21 11-23-3-18-14 6-16 3-11-16 7-21 6-21-20 4-27 27-27 62 0 39 9-8 12-5 10 12-2 13-6 31-10 41-4 9-3 17 3 17s13-9 17-19zm1461-6c-11-8-22-12-25-9-6 6 19 24 34 24 6-1 1-7-9-15zm79-35c-13-15-15-24-8-31 8-8 13-8 17 0 4 6 2 11-5 11-8 0-8 4 1 15 15 19 47 21 33 3-23-30-23-49 0-58 12-5 16-9 8-9-11-1-11-4 0-17 15-18 18-18-48 1-14 4-23 2-23-4s11-11 25-11 25-4 25-8c0-5 14-7 30-4 23 3 30 0 30-12 0-27-31-35-85-21-28 7-43 15-35 17 8 3 7 4-2 2-10-2-27-7-38-10-12-4-20-2-20 5 0 6 9 11 20 11s20 4 20 10c0 5-7 7-15 4-8-4-15-1-15 5s9 11 19 11c14 0 18 5 14 19-2 10 3 25 11 34 9 8 16 22 16 31 0 15 31 39 39 30 2-2-4-13-14-24zm-1392-21c4-16 2-19-10-15-13 5-14 4-3-9 8-9 8-15 2-15-19 0-23 18-10 40 16 24 14 25 21-1zm1586 6c-9-9-23-13-32-9-24 9-11 24 21 24 24 0 25-2 11-15zm-278-25c18 0 28-4 24-10-3-5-14-10-24-10s-32-7-47-15c-16-8-41-15-56-15-20 0-26-4-22-15 4-10 0-15-11-15-9 0-14 4-11 8 2 4 2 13-2 19-5 8-15 5-32-8-21-17-22-19-3-10 36 18 40 12 8-14-19-16-23-23-11-18 16 5 18 3 14-15-4-16 0-25 13-33 19-10 19-10-1-39-22-31-26-50-9-50 6 0 9 7 6 15-4 8-2 17 2 20 15 9 21-24 10-52-8-22-12-24-19-13-9 13-10 13-11 0-1-8 0-25 0-37 1-11-3-24-10-29-8-5-10 0-7 19 3 14 2 31-2 37-4 7-9-3-12-24-2-20 0-36 4-36s8-9 8-20c0-31-17-23-24 11-8 40 11 112 26 103 8-5 9-1 5 10s1 29 14 47c11 16 15 29 9 29s-18 7-26 15c-9 8-13 15-9 15 3 0 3 5-1 12-13 21-14 92-1 100 9 6 8 8-3 8-13 0-13 1 0 10 19 12 33 13 25 1-3-5 3-11 12-14 15-3 13-6-9-17-16-7-28-17-28-22s11-1 25 8c13 8 29 13 34 9 6-3 20-1 31 5s20 7 20 1c0-11 38-2 46 11 4 6-2 8-15 3-12-3-21-2-21 3 0 13 54 32 58 21 2-5 17-9 33-9zm255-6c15-18 28-18 21 1-4 8-2 17 3 20 17 10 16-20-2-68-26-69-17-79 21-24 17 26 40 47 49 47 10 0 23 5 30 12 6 6 14 9 17 7 2-3-9-16-27-30-98-77-236-279-272-399-11-35-18-44-32-42-11 2-21 6-23 8-6 6 24 60 64 118 42 58 45 79 8 45-16-14-45-37-66-53-20-15-44-40-52-56-10-19-20-27-30-24-40 16-1 67 88 118 27 15 47 30 44 32-9 9-153-64-176-90-14-14-29-26-34-26-6 0-19-7-29-17-11-10-18-12-18-4 0 6 6 14 14 17s16 14 19 24 28 30 56 44c59 30 64 38 19 29-22-4-29-3-24 5 4 7 2 12-4 12s-9 8-6 18c4 10 0 26-7 37-13 17-14 17-20-4-3-11-1-19 4-15 5 3 9-7 9-21 0-16-5-25-12-23-11 4-15 16-23 68-2 14-5 32-7 40s2 15 7 15c6 0 10-7 9-16 0-11 8-16 25-15 21 1 26-4 25-21 0-12 3-20 7-17 11 7 39-7 33-17-3-5 0-9 5-9 6 0 11 7 11 15s-6 15-14 15c-16 0-31 18-23 27 10 9 47-8 47-22 0-8 8-18 17-24 15-8 14-10-10-16-17-5-33-3-40 4-13 13-27 14-27 2 0-5 14-14 32-20 24-9 34-8 40 1 4 7 8 10 8 6 0-11 84 44 130 86 23 21 38 42 34 48s-3 8 3 5c6-4 16-1 22 6 8 11 6 13-11 12-12-1-24-8-26-16-12-37-128-125-147-111-11 8-35 48-35 58 0 3 14 4 30 2 17-3 30-1 30 4 0 4-7 8-16 8-10 0-14 6-10 15 4 10-3 17-22 21-45 10-52 13-52 24 0 7 6 8 19 0 30-16 49-11 21 5l-25 14 35 2c52 2 85-2 88-11 2-4 12-6 22-3 11 3 20 0 20-6s-7-11-15-11-15-4-15-10c0-14 13-13 28 2 9 9 12 8 12-6 0-9 5-14 10-11 8 5 7 11-1 21-9 11-8 15 5 20 9 3 23 4 31 1 8-4 17-2 20 4 4 5 10 7 15 4s14 5 21 17c10 19 10 21-2 12-28-22-50-25-47-6 4 23 18 32 51 32 15 0 27 5 27 10 0 6-7 10-15 10s-15 5-15 10c0 6-9 10-21 10-11 0-17 5-14 10 3 6 0 10-7 10-9 0-9 3 2 10 18 11 51 3 66-16zm-1525-27c-5-5-7-15-5-22 7-19-13-28-33-16-11 6-13 11-5 11 7 0 10 4 7 10-3 5-1 19 5 30 9 17 14 19 26 9 10-8 11-16 5-22zm-146-7c-3-5 0-12 6-16 6-3 15-1 19 6 10 16 31 4 24-14-3-8-15-11-32-8-38 7-55 22-42 37 5 6 6 16 2 21-4 4 1 2 10-5 10-7 16-17 13-21zm1617 6c6 4 9 1 6-7-5-16-55-22-64-8-3 5 0 16 6 24 10 13 14 12 27 0 8-9 19-12 25-9zm790-9c-7-8-10-16-7-19s-4-13-15-23-20-13-20-7 8 16 18 21c12 7 13 10 3 11-11 0-10 5 4 20 20 22 35 19 17-3zm-982 6c-26-10-51-41-37-46 7-2 9-7 6-11-12-13-38 5-31 22 5 16 4 16-11 0-10-9-24-15-32-12-22 9-8 22 30 30 19 3 35 10 35 15s12 9 28 8c15 0 21-3 12-6zm-1215-41c14-10 17-32 5-32-5 0-14 9-20 20-11 20-4 26 15 12zm870-2c-3-5-16-10-28-9-21 0-21 1-2 9 28 12 37 12 30 0zm-1119-27c4-13 11-20 18-16 6 3 8 3 4-2-4-4 5-23 19-42 18-23 22-34 12-33-26 4-40 0-34-10 3-5 1-10-5-10s-8-4-5-10c3-5 2-10-4-10-5 0-13 5-16 10-3 6-2 10 4 10s7 7 4 17c-4 9-2 14 3 10 6-3 16-2 24 3 12 7 11 13-8 33-12 13-22 28-22 34s-7 13-15 17c-20 7-19 23 0 23 9 0 18-11 21-24zm-16-25c0-5 7-16 15-25 20-19 11-31-9-14-13 11-15 9-11-8 4-24-5-27-24-8-11 10-13 10-7 0 4-7 2-13-4-13s-8-5-4-11c3-6 15-8 26-6 11 3 17 3 14 0-3-4 1-15 11-25 15-17 15-18-1-18-9 0-14-4-11-10 10-16-11-12-25 5-6 8-9 18-6 24 4 5-3 12-14 16-11 3-20 12-20 18 1 16 26 48 33 41 3-3 8 4 12 16s2 27-4 33c-20 20-12 31 9 12 11-10 20-22 20-27zm325 32c3-5-1-10-9-10s-18 5-21 10c-3 6 1 10 9 10s18-4 21-10zm1008-12c3-10 0-18-8-18-7 0-15 8-17 18-3 11 0 19 8 19 7 0 15-9 17-19zm42 12c3-5 1-10-5-10s-9-4-5-10c3-5 12-7 20-3 8 3 15 1 15-5 0-5-9-12-19-15-19-5-30 8-37 41-3 14 22 16 31 2zm-145-25c-11-13-10-14 5-9 12 5 16 4 12-3-4-6 2-18 13-28 14-12 17-22 10-30-12-14-66-8-68 8 0 7-3 21-5 32-3 13 3 24 17 32 28 16 31 16 16-2zm-1302-17c16-16 15-28-3-28-9 0-12-6-8-17 6-16 4-16-15 1-17 14-19 23-11 37 11 22 20 24 37 7zm1440-17c15-10 37-22 50-25 12-4 22-12 22-17 0-12-37-12-45 1-3 5-12 7-19 4-9-3-17 3-21 15-3 12-11 21-16 21s-9 5-9 10c0 14 8 12 38-9zm98-13c3-5 4-12 1-15-7-6-77 18-77 27 0 10 70-1 76-12zm961-3c0-8-3-13-5-10-3 3-11-3-19-13-8-9-13-12-10-7 2 6 7 18 10 28 8 21 24 23 24 2zm-2272-6c4-6 5-12 2-15-7-7-37 7-37 17 0 13 27 11 35-2zm-261-7c3-5 2-18-1-30-4-17-9-20-18-12-11 9-13 25-6 48 2 6 20 1 25-6zm47-65c-14-14-41 10-34 29 5 13 8 12 24-2 13-12 16-21 10-27zm46-51c0-8-6-12-14-9-7 3-11 9-8 13 3 5 1 11-5 15-5 3-10 11-10 17s8 4 18-5c10-10 19-23 19-31zm1339-13c-5-12-10-13-17-6-8 8-7 18 2 34 12 21 14 22 17 6 2-10 1-25-2-34zm-1246 16c7 12 13 12 32 4 13-7 18-12 11-12-7-1-10-8-6-17 4-10-2-17-16-21-20-5-20-6-4-18s15-13-9-12c-18 2-25 7-23 19 2 9-6 25-17 35-21 18-21 18-16-4 7-25-4-31-18-10-8 11-9 21-5 50 0 5 15 0 31-10 26-15 32-16 40-4zm219 2c9-6 10-11 2-15-14-9-51 2-51 15 0 11 30 12 49 0zm1870-39c-6-17-17-33-25-36s-13-2-10 3c11 17-23 20-36 3-9-11-10-14 0-8 6 4 12 3 12-2 0-10-49-26-57-18-6 5 38 46 51 47 6 1 17 1 25 0 7-2 10 2 7 8-6 9 34 45 41 37 2-1-2-17-8-34zm-781 10c6-18-29-27-39-11-13 21-11 26 13 24 12-1 24-7 26-13zm-368-2c-8-5-22-10-30-10-13 0-13 1 0 10 8 5 22 10 30 10 13 0 13-1 0-10zm276-37c-11-11-19 6-11 24 8 17 8 17 12 0 3-10 2-21-1-24zm42 20c-2-9-10-18-18-20-13-4-13-3 0 6 11 8 12 11 2 11-7 0-10 5-7 10 10 16 27 11 23-7zm-352-49c42-20 43-30 4-39-21-5-39-1-57 10-25 17-26 18-8 31 23 17 20 17 61-2zm1050-10c-3-18-24-34-45-34-11 0-9 4 5 15 19 15 19 15-1 9-15-4-13-1 5 10 32 20 39 20 36 0zm-1810-42c12-9 30-32 39-51l17-34-33 7c-38 7-73 39-84 74-5 18-3 22 17 22 13 0 33-8 44-18zm124-47c12-19 27-35 33-35 8 0 8-3 0-11-19-19-91 8-108 41-20 39-20 40 19 40 28 0 38-6 56-35zm1266-74c-8-12-46-21-46-11 0 9 18 18 38 19 7 1 11-3 8-8zm-116-336c-7-8-46-36-87-61-73-46-118-58-133-34-19 31 20 69 73 71 12 0 47 8 77 19 72 24 86 25 70 5zm-240-89c0-15-73-36-129-37-54-1-60-3-36-10 18-5-10-6-74-3-65 3-118 11-138 21-19 8-32 18-29 20 2 3 13 0 23-5s30-12 45-16c22-5 26-3 22 9-5 13-2 14 21 5 31-12 128-14 121-2-3 5 13 7 34 6 22-1 54 2 72 6 39 9 68 12 68 6z"/>
  <path d="m1130 2439c-11-19-7-39 5-27 7 7 15 48 10 48-2 0-9-9-15-21z"/>
  <path d="m367 2416c-5-13 28-54 37-45 2 2 2 16-1 32-6 29-27 37-36 13z"/>
  <path d="m1053 2037c-56-23-100-43-98-45 6-6 194 68 200 79 8 12 14 14-102-34z"/>
  <path d="m1033 1957c-3-4 12-5 34-1 51 9 56 16 9 12-20-1-40-6-43-11z"/>
  <path d="m476 1950c3-14 10-29 15-34 14-16 10 6-7 34l-15 25 7-25z"/>
  <path d="m520 1958c0-21 17-41 24-30 3 6 2 13-4 17s-8 11-5 16c4 5 1 9-4 9-6 0-11-6-11-12z"/>
  <path d="m440 1953c0-7-7-10-17-7-17 5-17 5 0-6 24-15 39-9 27 10-6 9-10 10-10 3z"/>
  <path d="m1190 1880c25-4 72-10 105-14l60-6-65 15c-36 7-83 13-105 13l-40-1 45-7z"/>
  <path d="m2550 1600l-25-8 25-1c27-1 18-15-18-26-21-6-23-4-17 14 5 16 2 21-10 21-11 0-15-5-11-15s-5-22-27-36l-32-20 30 6c29 6 29 6 11-9-11-9-15-16-8-16 6 0 19 9 29 19 10 11 30 22 46 26 15 4 27 11 27 15 0 5 7 16 16 24 17 18 7 20-36 6z"/>
  <path d="m2390 1567c-37-11-57-22-47-25 9-2 15-8 12-13-4-5-2-9 4-9 5 0 13 10 16 21 6 18 13 20 41 16 25-4 34-2 34 8 0 7 8 16 18 18 11 3 12 5 2 5-8 0-44-9-80-21z"/>
  <path d="m360 1565c-11-13-10-14 5-9 14 6 16 4 10-7s-5-12 6-1c9 8 10 15 3 22-8 8-15 6-24-5z"/>
  <path d="m2382 1526c-45-32-45-32-9-30 40 4 69-4 62-17-4-5-2-9 4-9 17 0 23 20 11 35-8 10-21 13-38 8-17-4-23-2-18 6 4 6 14 11 22 11s14 5 14 10c0 15-11 12-48-14z"/>
  <path d="m2285 1524c-11-8-19-18-17-22 2-3-2-8-9-11-7-2-9 1-4 9 4 7-5 5-24-4-33-18-42-29-13-19 15 6 15 4-3-16-11-12-15-22-10-21 25 5 37-1 29-13-5-7 3 1 18 17 14 17 24 35 21 40-4 5 1 6 11 3 10-4 20-7 22-7 3 0 2-4-1-10-3-5-1-10 6-10 8 0 8-4 1-13-8-10-5-16 11-27 21-12 21-12 7 5s-14 17 7 7c19-11 22-10 20 7-1 12-6 17-16 13-9-3-12-1-7 6 4 7 2 12-3 12-6 0-10 3-10 8 3 20-2 32-12 26-8-4-8 0 0 15 14 25 4 27-24 5z"/>
  <path d="m196 1485c7-18 30-20 40-3 5 8 2 9-9 5-10-3-17-2-17 3 0 6-4 10-10 10-5 0-7-7-4-15z"/>
  <path d="m2360 1480c-9-5-6-10 9-15 17-5 20-10 11-20-8-9-8-15 0-20 5-3 13 2 17 12s10 20 14 23c12 9-38 28-51 20z"/>
  <path d="m215 1400c-4-6-11-8-16-5-5 4-9 1-9-4 0-17 27-13 34 4 6 17 0 20-9 5z"/>
  <path d="m784 1182c4-6 19-9 34-6 18 3 40-3 67-20 30-19 35-26 20-26-19-1-19-1-2-11 13-7 22-8 29-1 17 17-56 64-109 70-32 3-44 2-39-6z"/>
  <path d="m394 1162c3-18 18-20 24-4 1 5-4 12-12 15-9 4-13 0-12-11z"/>
  <path d="m1170 1150c-21-13-5-25 52-39 26-6 49-11 52-11 10 0 6 39-4 45-5 3-10-1-10-9 0-23-27-20-33 4-5 21-32 26-57 10zm40-10c0-5-9-10-21-10-11 0-17 5-14 10 3 6 13 10 21 10s14-4 14-10z"/>
  <path d="m1450 1130c0-5-8-7-17-3-15 5-16 3-5-8 10-11 15-10 29 4 11 11 13 17 5 17-7 0-12-4-12-10z"/>
  <path d="m150 1110c0-6-4-9-9-6s-12-1-15-10c-3-8-10-12-16-9-5 3-10-3-10-14 0-27 3-27 40 8 20 18 28 31 21 35-6 4-11 2-11-4z"/>
  <path d="m1150 1111c0-12 12-15 44-11 11 1 16-3 11-10-4-7-17-9-32-5-17 4-22 2-18-5 4-6-1-20-11-31-23-25-9-25 18 1 12 11 28 20 35 20s13 5 13 10c0 6 8 10 18 10 37 0 30-13-19-37-28-14-48-28-45-31s27 6 53 20c64 34 105 44 97 23-7-18 18-20 49-3 21 11 21 11 2 20-16 7-15 7 6 3 16-3 31 1 38 8 8 11 3 13-27 13-20-1-40-5-44-11-5-6-15-5-29 3-11 8-18 9-15 4 9-14-24-24-39-12-7 6-29 12-47 14-19 2-40 6-47 10-6 4-11 2-11-3z"/>
  <path d="m170 1070c0-6 7-18 15-26 9-10 15-11 15-4 0 6-7 18-15 26-9 10-15 11-15 4z"/>
  <path d="m120 1032c0-14 58-142 65-142 11 0-2 47-18 63-10 10-16 25-13 33s1 14-4 14c-6 0-10 5-10 11 0 7 10 9 24 7 17-4 23-1 19 9-6 15-13 16-33 3-9-6-17-5-22 3-6 9-8 9-8-1z"/>
  <path d="m187 988c-23-41-15-46 23-15 28 24 29 27 12 36-14 8-21 4-35-21z"/>
  <path d="m1185 965l-30-14 34 6c26 5 32 3 26-6-5-9-24-11-64-7-37 4-49 3-36-3 11-5 36-10 55-10 26-1 31-4 20-11-21-13-73-13-65 1 5 7-5 8-32 4-30-5-35-4-23 5 12 10 10 11-10 6-14-3-34-6-45-7-32-1 24-16 97-24 60-8 62-9 35-20-15-6-25-14-21-18 3-3-9-10-27-16-27-7-29-9-11-10 13-1 20-5 17-11s4-10 17-10 33-3 46-6c17-5 21-3 16 9-4 12-14 15-34 11-17-4-31-1-35 6-6 10 3 12 38 8 33-4 44-2 41 7-3 7-16 10-32 7-26-4-26-4-8 10 20 16 56 13 56-4 0-5 5-6 10-3 15 9 2 25-21 25-10 0-19 5-19 10 0 6 14 10 30 10 17 0 30-4 30-10 0-17 17-11 22 8 4 15 0 17-23 14-17-3-29 0-29 7 0 6 9 11 19 11 14 0 18 5 14 20-6 23-17 24-58 5z"/>
  <path d="m1394 968c-4-7-3-8 4-4s12 2 12-3c0-6 4-11 10-11 5 0 7 7 4 15-7 18-20 19-30 3z"/>
  <path d="m550 910c13-8 13-10-2-10-11 0-15-5-12-15 4-8 12-15 20-15s14-8 15-17c0-12 2-13 6-5 3 7 0 19-7 26-7 10-8 16 0 21 5 3 13-1 16-9 3-9 11-16 16-16 6 0 5 6-2 15-10 13-9 15 10 15 35 0 21 6-30 14-31 4-40 3-30-4z"/>
  <path d="m923 913c15-2 27-9 27-14s16-9 36-9c19 0 33-3 31-7-3-5 14-8 37-8 24 0 43 4 43 10s-15 9-34 7c-19-3-33 0-33 6 0 7-14 9-35 5-23-4-35-2-35 6 0 6-14 10-32 10-31-2-31-2-5-6z"/>
  <path d="m845 899c14-7 7-8-25-4-33 5-42 3-34-5 15-15 86-9 92 8 2 8-6 12-25 11-25 0-26-1-8-10z"/>
  <path d="m1259 871c-1-6-2-16-3-22 0-7-10-15-21-20-11-4-14-8-7-8 7-1 10-5 7-11s1-7 9-4c9 3 14 10 11 14-7 12 39 21 77 14 33-5 33-5 8 9-16 10-31 12-47 6-12-4-25-4-28 1-3 4 0 10 7 12 9 3 9 6 0 12-7 4-13 2-13-3z"/>
  <path d="m1386 865c4-8 1-15-5-15s-11-7-11-15c0-9 6-12 15-9 8 4 13 10 10 14-3 5-1 11 5 15 11 7 4 25-10 25-5 0-7-7-4-15z"/>
  <path d="m1020 851c0-10 30-24 37-17 3 3 2 9-2 15-8 13-35 15-35 2z"/>
  <path d="m740 839c0-5 5-7 10-4 6 4 18 1 26-6 8-6 18-9 21-5 9 9-17 26-39 26-10 0-18-5-18-11z"/>
  <path d="m1402 824c-8-9-9-14-2-14 6 0 8-4 5-10-10-17 1-11 28 14 25 23 25 24 4 24-12 0-28-7-35-14z"/>
  <path d="m760 760c0-5-8-10-17-10-12 0-18-8-19-25-1-16 3-25 13-25 8 0 11-4 8-10-8-13 5-13 25 0 13 8 13 10-1 10-28 0-29 26-3 41 20 10 29 11 45 1 10-7 19-8 19-3 0 12-8 16-42 25-17 4-28 2-28-4z"/>
  <path d="m1180 766c0-4 7-14 15-23 8-8 13-18 10-23-3-4 5-6 17-3 19 4 20 3 8-6-8-6-10-11-4-11s17 6 23 14c10 11 8 16-8 21-12 3-21 11-21 17s-3 8-7 5c-3-4-12-2-20 4-7 6-13 8-13 5z"/>
  <path d="m850 739c-13-7-13-9 0-9s13-1 0-10c-12-8-11-11 9-17 23-6 24-7 5-14-15-6-13-8 11-8 23-1 27-4 15-11-8-5-10-10-4-10s19 9 28 19c14 15 15 20 4 24-7 2-2 2 12 0 34-6 45-27 17-33-31-7-90-40-83-47 3-3 18 3 33 13 17 11 46 18 74 18 40 0 45 2 33 14-8 7-12 18-8 23 3 5 2 9-3 8-16-4-43 13-43 27 0 16-16 19-22 5-1-5-15-13-31-16-22-6-26-4-21 8 7 19-8 28-26 16z"/>
  <path d="m786 715c4-8 10-15 16-15 5 0 6-4 3-10-3-5-1-10 5-10 7 0 9 7 6 16s-6 20-6 25-7 9-15 9c-9 0-12-6-9-15z"/>
  <path d="m605 710c-3-5 1-10 10-10s13-4 10-10c-3-5-1-10 4-10 13 0 13 3 5 24-7 18-20 21-29 6z"/>
  <path d="m1030 643c-24-14-24-14 10-8 27 5 32 4 20-5-13-9-12-10 5-8 11 1 26-1 33-5 6-5 12-5 12-2 0 10-23 30-40 36-8 3-26-1-40-8z"/>
  <path d="m950 639c-12-9-11-10 8-6 26 6 30-9 5-16-13-3-11-5 6-6 14 0 33-8 43-18 31-28 30-8-2 25-33 35-38 37-60 21z"/>
  <path d="m1125 640c-8-13 15-13 35 0 12 8 11 10-7 10-12 0-25-4-28-10z"/>
  <path d="m100 1232c0-5 9-12 21-15 13-3 19-1 16 6-5 15-37 22-37 9z"/>
  <path d="m1766 486c-22-10-25-14-12-19 8-3 18-2 22 4 3 6 16 14 28 19 11 5 14 9 6 9-8-1-28-6-44-13z"/>
  <path d="m1474 400c-12-5-25-13-28-18-9-15 31-2 45 14 13 16 12 16-17 4z"/>
  <path d="m1880 1084c0-7 27-34 34-34 13 0 5 28-10 34-19 7-24 8-24 0z"/>
  <path d="m1905 1e3c4-6 20-10 37-10 39 0 31 10-11 15-19 2-29 0-26-5z"/>
  <path d="m1864 951c4-5 0-12-6-15-7-3-4-5 6-3 24 3 34 27 11 27-9 0-14-4-11-9z"/>
  <path d="m1916 907c-16-12-17-15-3-20 10-4 17 1 20 14 6 23 6 23-17 6z"/>
  <path d="m1845 860c3-5 13-10 21-10s14 5 14 10c0 6-9 10-21 10-11 0-17-4-14-10z"/>
  <path d="m640 1932c0-6 7-18 16-27 16-15 16-18 1-33-13-12-20-13-28-5-6 6-18 9-25 6-23-8-16-22 8-15 15 4 19 2 13-7-6-10-2-11 16-6 13 4 26 12 27 17 2 4 10 15 18 22 12 13 11 16-6 21-11 3-19 11-17 17 1 6-4 13-10 15-7 3-13 0-13-5z"/>
 </g>
</svg>
