<?xml version="1.0" encoding="utf-8"?>
<!-- Generator: Adobe Illustrator 18.1.0, SVG Export Plug-In . SVG Version: 6.00 Build 0)  -->
<!DOCTYPE svg PUBLIC "-//W3C//DTD SVG 1.1//EN" "http://www.w3.org/Graphics/SVG/1.1/DTD/svg11.dtd">
<svg version="1.1" id="Layer_1" xmlns="http://www.w3.org/2000/svg" xmlns:xlink="http://www.w3.org/1999/xlink" x="0px" y="0px"
	 viewBox="0 0 360 360" enable-background="new 0 0 360 360" xml:space="preserve">
<g>
	<g>
		<path fill="#EE3124" d="M180,0C80.7,0,0,80.7,0,180s80.7,180,180,180s180-80.7,180-180S279.3,0,180,0z M180,312.1
			c-28.5-48.8-78.4-140-78.4-173.5c0-43.3,35-78.4,78.4-78.4s78.4,35,78.4,78.4C258.4,172.2,208.5,263.4,180,312.1z"/>
		<g>
			<path fill="#EE3124" d="M180,177c-23.3,0-42.7-18.9-42.7-42.7s18.9-42.7,42.7-42.7c23.3,0,42.7,18.9,42.7,42.7S203.3,177,180,177
				z"/>
		</g>
	</g>
</g>
</svg>
