<?xml version="1.0" encoding="utf-8"?>
<!-- Generator: Adobe Illustrator 18.1.0, SVG Export Plug-In . SVG Version: 6.00 Build 0)  -->
<!DOCTYPE svg PUBLIC "-//W3C//DTD SVG 1.1//EN" "http://www.w3.org/Graphics/SVG/1.1/DTD/svg11.dtd">
<svg version="1.1" id="Layer_1" xmlns="http://www.w3.org/2000/svg" xmlns:xlink="http://www.w3.org/1999/xlink" x="0px" y="0px"
	 viewBox="0 0 336.2 360" enable-background="new 0 0 336.2 360" xml:space="preserve">
<g>
	<g>
		<circle fill="#F02D0D" cx="237.3" cy="261.1" r="11.1"/>
		<circle fill="#F02D0D" cx="237.3" cy="215.2" r="11.1"/>
		<circle fill="#F02D0D" cx="98.9" cy="122.7" r="11.1"/>
		<circle fill="#F02D0D" cx="191.3" cy="168.7" r="11.1"/>
		<circle fill="#F02D0D" cx="144.8" cy="215.2" r="11.1"/>
		<path fill="#F02D0D" d="M168.1,23.8c-22.1,0-43.6,4.1-62.8,12.2c0.6,3.5,1.2,7,1.2,10.5c0,32.6-26.2,58.7-58.7,58.7
			c-7.6,0-14.5-1.2-20.9-4.1C9.9,127.4,0,158.8,0,191.9C0,285,75,360,168.1,360c92.5,0,168.1-75,168.1-168.1S260.5,23.8,168.1,23.8z
			 M98.9,280.3c-10.5,0-19.2-8.7-19.2-19.2s8.7-19.2,19.2-19.2s19.2,8.7,19.2,19.2C118.1,272.2,109.3,280.3,98.9,280.3z M94.8,230.3
			v-30.2c0-2.3,1.7-4.1,4.1-4.1s4.1,1.7,4.1,4.1v30.2c0,2.3-1.7,4.1-4.1,4.1S94.8,232.6,94.8,230.3z M98.9,187.9
			c-10.5,0-19.2-8.7-19.2-19.2s8.7-19.2,19.2-19.2s19.2,8.7,19.2,19.2C118.1,179.7,109.3,187.9,98.9,187.9z M98.9,141.9
			c-10.5,0-19.2-8.7-19.2-19.2s8.7-19.2,19.2-19.2s19.2,8.7,19.2,19.2S109.3,141.9,98.9,141.9z M148.9,276.3c0,2.3-1.7,4.1-4.1,4.1
			c-2.3,0-4.1-1.7-4.1-4.1V246c0-2.3,1.7-4.1,4.1-4.1c2.3,0,4.1,1.7,4.1,4.1V276.3z M144.8,234.4c-10.5,0-19.2-8.7-19.2-19.2
			s8.7-19.2,19.2-19.2s19.2,8.7,19.2,19.2S155.3,234.4,144.8,234.4z M140.7,183.8v-30.2c0-2.3,1.7-4.1,4.1-4.1
			c2.3,0,4.1,1.7,4.1,4.1v30.2c0,2.3-1.7,4.1-4.1,4.1C142.5,187.9,140.7,186.1,140.7,183.8z M144.8,141.9
			c-10.5,0-19.2-8.7-19.2-19.2s8.7-19.2,19.2-19.2s19.2,8.7,19.2,19.2S155.3,141.9,144.8,141.9z M187.3,107.6c0-2.3,1.7-4.1,4.1-4.1
			c2.3,0,4.1,1.7,4.1,4.1v30.2c0,2.3-1.7,4.1-4.1,4.1c-2.3,0-4.1-1.7-4.1-4.1V107.6z M195.4,276.3c0,2.3-1.7,4.1-4.1,4.1
			c-2.3,0-4.1-1.7-4.1-4.1V246c0-2.3,1.7-4.1,4.1-4.1c2.3,0,4.1,1.7,4.1,4.1V276.3z M195.4,230.3c0,2.3-1.7,4.1-4.1,4.1
			c-2.3,0-4.1-1.7-4.1-4.1v-30.2c0-2.3,1.7-4.1,4.1-4.1c2.3,0,4.1,1.7,4.1,4.1V230.3z M191.3,187.9c-10.5,0-19.2-8.7-19.2-19.2
			s8.7-19.2,19.2-19.2s19.2,8.7,19.2,19.2C210.5,179.7,201.8,187.9,191.3,187.9z M237.3,280.3c-10.5,0-19.2-8.7-19.2-19.2
			s8.7-19.2,19.2-19.2s19.2,8.7,19.2,19.2C256.5,272.2,247.8,280.3,237.3,280.3z M237.3,234.4c-10.5,0-19.2-8.7-19.2-19.2
			s8.7-19.2,19.2-19.2s19.2,8.7,19.2,19.2S247.8,234.4,237.3,234.4z M233.2,183.8v-30.2c0-2.3,1.7-4.1,4.1-4.1
			c2.3,0,4.1,1.7,4.1,4.1v30.2c0,2.3-1.7,4.1-4.1,4.1C235,187.9,233.2,186.1,233.2,183.8z M237.3,141.9c-10.5,0-19.2-8.7-19.2-19.2
			s8.7-19.2,19.2-19.2s19.2,8.7,19.2,19.2S247.8,141.9,237.3,141.9z"/>
		<circle fill="#F02D0D" cx="98.9" cy="261.1" r="11.1"/>
		<circle fill="#F02D0D" cx="144.8" cy="122.7" r="11.1"/>
		<circle fill="#F02D0D" cx="237.3" cy="122.7" r="11.1"/>
		<circle fill="#F02D0D" cx="98.9" cy="168.7" r="11.1"/>
	</g>
	<path fill="#858585" d="M47.7,0C22.1,0,0.6,20.9,0.6,47.1s20.9,47.1,47.1,47.1c25.6,0,47.1-20.9,47.1-47.1S73.9,0,47.7,0z
		 M54.7,66.9H46V39.5H35.5v-6.4c1.7,0,2.9,0,4.1-0.6c1.2,0,2.9-0.6,3.5-1.2c1.2-0.6,2.3-1.7,2.9-2.9s1.2-2.3,1.7-4.1h7V66.9z"/>
</g>
</svg>
