<?xml version="1.0" encoding="utf-8"?>
<!-- Generator: Adobe Illustrator 18.1.0, SVG Export Plug-In . SVG Version: 6.00 Build 0)  -->
<!DOCTYPE svg PUBLIC "-//W3C//DTD SVG 1.1//EN" "http://www.w3.org/Graphics/SVG/1.1/DTD/svg11.dtd">
<svg version="1.1" id="Layer_1" xmlns="http://www.w3.org/2000/svg" xmlns:xlink="http://www.w3.org/1999/xlink" x="0px" y="0px"
	 viewBox="0 0 360 360" enable-background="new 0 0 360 360" xml:space="preserve">
<g>
	<path fill="#EE3124" d="M179.9,0.1C80.7,0.1,0,80.6,0,180s80.9,179.9,179.9,179.9S360,279.4,360,180S279.5,0.1,179.9,0.1L179.9,0.1
		z"/>
	<g>
		<path fill="#FFFFFF" d="M275.8,251.6h-74V206h74V251.6z M208.8,244.2H268v-30.4h-59.2V244.2z"/>
		<path fill="#FFFFFF" d="M242.2,220.8h-29.7v-2.4h29.7V220.8z"/>
		<path fill="#FFFFFF" d="M242.2,225.8h-29.7v-2.4h29.7V225.8z"/>
		<path fill="#FFFFFF" d="M242.2,230.8h-29.7v-2.4h29.7V230.8z"/>
		<path fill="#FFFFFF" d="M242.2,236h-29.7v-2.4h29.7V236z"/>
		<path fill="#FFFFFF" d="M161.7,123.8h-29.7v-2.4h29.7V123.8z"/>
		<path fill="#FFFFFF" d="M161.7,128.8h-29.7v-2.4h29.7V128.8z"/>
		<path fill="#FFFFFF" d="M161.7,133.8h-29.7v-2.4h29.7V133.8z"/>
		<path fill="#FFFFFF" d="M161.7,138.8h-29.7v-2.4h29.7V138.8z"/>
		<path fill="#FFFFFF" d="M234.8,247.9v12.8H122.2V111.6h112.6v98.1h7.4V104.1H114.8v164.1h127.4v-20.2L234.8,247.9L234.8,247.9z"/>
	</g>
</g>
</svg>
