<?xml version="1.0" encoding="utf-8"?>
<!-- Generator: Adobe Illustrator 18.1.0, SVG Export Plug-In . SVG Version: 6.00 Build 0)  -->
<!DOCTYPE svg PUBLIC "-//W3C//DTD SVG 1.1//EN" "http://www.w3.org/Graphics/SVG/1.1/DTD/svg11.dtd">
<svg version="1.1" id="Layer_1" xmlns="http://www.w3.org/2000/svg" xmlns:xlink="http://www.w3.org/1999/xlink" x="0px" y="0px"
	 viewBox="0 0 360 360" enable-background="new 0 0 360 360" xml:space="preserve">
<g>
	<polygon fill="#EE3124" points="180,203.3 151.9,182.2 97.5,236.6 262.1,236.6 207.6,182.2 	"/>
	<polygon fill="#EE3124" points="262.7,213.3 262.7,140.2 221.1,171.9 	"/>
	<polygon fill="#EE3124" points="257,123.4 103,123.4 180,182.2 	"/>
	<path fill="#EE3124" d="M180,0C80.7,0,0,80.7,0,180s80.7,180,180,180s180-80.7,180-180S279.3,0,180,0z M279.5,253.8h-0.7H80.7h-0.2
		V106.4h198.9L279.5,253.8L279.5,253.8z"/>
	<polygon fill="#EE3124" points="97.3,140.2 97.3,212.9 138.6,171.9 	"/>
</g>
</svg>
