<?xml version="1.0" encoding="utf-8"?>
<!-- Generator: Adobe Illustrator 18.1.0, SVG Export Plug-In . SVG Version: 6.00 Build 0)  -->
<!DOCTYPE svg PUBLIC "-//W3C//DTD SVG 1.1//EN" "http://www.w3.org/Graphics/SVG/1.1/DTD/svg11.dtd">
<svg version="1.1" id="Layer_1" xmlns="http://www.w3.org/2000/svg" xmlns:xlink="http://www.w3.org/1999/xlink" x="0px" y="0px"
	 viewBox="0 0 360 360" enable-background="new 0 0 360 360" xml:space="preserve">
<g>
	<path fill="#EE3124" d="M180,0C80.7,0,0,80.7,0,180s80.7,180,180,180s180-80.7,180-180S279.3,0,180,0L180,0z"/>
</g>
<g>
	<path fill="#FFFFFF" d="M277.9,173.3c0-4.6-3-6.5-7.2-4.1l-33.3,19.4c-4.1,2.2-7.2,0.2-7.2-4.1v-5.2c0-4.6-3.7-8.5-8.5-8.5h-108
		c-4.6,0-8.5,3.7-8.5,8.5v55.1c0,4.6,3.7,8.5,8.5,8.5h108c4.6,0,8.5-3.7,8.5-8.5v-5.7c0-4.6,3-6.5,7.2-4.1l33.3,19.4
		c4.1,2.2,7.2,0.2,7.2-4.1L277.9,173.3L277.9,173.3z"/>
	<path fill="#FFFFFF" d="M134.5,160.4c-15.5,0-28.5-12.8-28.5-28.3s12.8-28.3,28.5-28.3c15.5,0,28.5,12.8,28.5,28.3
		S150.4,160.4,134.5,160.4z M134.5,114.7c-9.6,0-17.4,7.8-17.4,17.4c0,9.6,7.8,17.4,17.4,17.4s17.4-7.8,17.4-17.4
		C151.9,122.5,144.3,114.7,134.5,114.7z"/>
	<path fill="#FFFFFF" d="M200.5,160.4c-15.5,0-28.5-12.8-28.5-28.3s12.8-28.3,28.5-28.3c15.5,0,28.5,12.8,28.5,28.3
		S216.3,160.4,200.5,160.4z M200.5,114.7c-9.6,0-17.4,7.8-17.4,17.4c0,9.6,7.8,17.4,17.4,17.4c9.6,0,17.4-7.8,17.4-17.4
		C217.9,122.5,210.3,114.7,200.5,114.7z"/>
</g>
</svg>
