<?xml version="1.0" encoding="utf-8"?>
<!-- Generator: Adobe Illustrator 18.1.0, SVG Export Plug-In . SVG Version: 6.00 Build 0)  -->
<!DOCTYPE svg PUBLIC "-//W3C//DTD SVG 1.1//EN" "http://www.w3.org/Graphics/SVG/1.1/DTD/svg11.dtd">
<svg version="1.1" id="Layer_1" xmlns="http://www.w3.org/2000/svg" xmlns:xlink="http://www.w3.org/1999/xlink" x="0px" y="0px"
	 viewBox="0 0 360 360" enable-background="new 0 0 360 360" xml:space="preserve">
<g>
	<path fill="#EE3124" d="M180,0C80.7,0,0,80.7,0,180s80.7,180,180,180s180-80.7,180-180S279.3,0,180,0L180,0z"/>
</g>
<g>
	<path fill="#FFFFFF" d="M259.9,148.2c-3.7-2-2.2-4.6,3.5-5.9l0,0l-27.4-15l0,0c-2.2,0.7-4.4,0.7-6.5,0.7c-3.7,0-7.8-0.7-10-2
		c0,0-0.2,0-0.2-0.2L190,133l41.1,22L259.9,148.2L259.9,148.2z"/>
	<path fill="#FFFFFF" d="M101.4,154.5c3.7,2,2.2,4.6-3.5,5.9c-0.2,0-0.2,0-0.7,0l27.4,15c0.2,0,0.2,0,0.7-0.2
		c2.2-0.7,4.4-0.7,6.5-0.7c3.7,0,7.8,0.7,10,2l0,0l28.9-6.7l-41.1-22.4l-28.9,6.7C101,154.1,101.4,154.1,101.4,154.5z"/>
	<path fill="#FFFFFF" d="M235.3,173.7l51.4-12.2v-5.9v-3.7l-51.4,12.4V173.7z"/>
	<path fill="#FFFFFF" d="M129.3,189.6l-2,0.2l-1.5-0.9l-52-28.1v0.2v8.5l54.4,29.6l51.4-12.2v-9.1L129.3,189.6z"/>
	<path fill="#FFFFFF" d="M286.7,175v-5.9v-3.5l-51.4,12.2v9.4L286.7,175z"/>
	<path fill="#FFFFFF" d="M129.3,203.3l-2,0.2l-1.5-0.9l-52-28.1v0.2v8.5l54.4,29.6l51.4-12.2v-9.4L129.3,203.3z"/>
	<path fill="#FFFFFF" d="M286.7,188.9V183v-3.5l-51.4,12.2v9.4L286.7,188.9z"/>
	<path fill="#FFFFFF" d="M129.3,217.2l-2,0.2l-1.5-0.9L74,188.7v0.2v8.5l54.4,29.6l51.4-12.2v-9.4L129.3,217.2z"/>
	<path fill="#FFFFFF" d="M286.7,203.7v-5.9v-3.5l-51.4,12.2v9.4L286.7,203.7z"/>
	<path fill="#FFFFFF" d="M129.3,231.6l-2,0.2l-1.5-0.9l-52-28.1v0.2v8.5l54.4,29.6l51.4-12.2v-9.4L129.3,231.6z"/>
	<path fill="#FFFFFF" d="M219,125.8c0,0,0.2,0,0.2,0.2c2.2,1.3,6.3,2,10,2c2.2,0,4.6-0.2,6.5-0.7l0,0l27.4,15l0,0
		c-5.7,1.3-7.2,4.1-3.5,5.9l0,0l-29.2,6.7l4.6,2.4v1.5l51.4-12.2L232,117.1l-48.8,11.8l6.5,3.7L219,125.8z"/>
	<path fill="#FFFFFF" d="M142.1,176.3L142.1,176.3c-2.4-1.3-6.3-2-10-2c-2.2,0-4.6,0.2-6.5,0.7c-0.2,0-0.2,0-0.7,0.2l-27.4-15
		c0.2,0,0.2,0,0.7,0c5.7-1.3,7.2-4.1,3.5-5.9c0,0-0.2,0-0.2-0.2l28.9-6.7l-6.5-3.7l-49.4,11.8l54.4,29.6l49.4-11.8l-6.5-3.7
		L142.1,176.3z"/>
	<path fill="#FFFFFF" d="M176.3,132.1l-44.2,10.7l52.5,28.5v55.9l44.8-10.9v-55.3L176.3,132.1z"/>
</g>
</svg>
