<?xml version="1.0" encoding="utf-8"?>
<!-- Generator: Adobe Illustrator 18.1.0, SVG Export Plug-In . SVG Version: 6.00 Build 0)  -->
<!DOCTYPE svg PUBLIC "-//W3C//DTD SVG 1.1//EN" "http://www.w3.org/Graphics/SVG/1.1/DTD/svg11.dtd">
<svg version="1.1" id="Layer_1" xmlns="http://www.w3.org/2000/svg" xmlns:xlink="http://www.w3.org/1999/xlink" x="0px" y="0px"
	 viewBox="0 0 360 360" enable-background="new 0 0 360 360" xml:space="preserve">
<g>
	<path fill="#EE3124" d="M180-0.4C80.7-0.4,0,80.3,0,179.6s80.7,180,180,180s180-80.7,180-180S279.3-0.4,180-0.4L180-0.4z"/>
</g>
<g>
	<path fill="#FFFFFF" d="M128.4,81.8c-26.1,0-47.7,21.1-47.7,47.2s21.5,47.2,47.7,47.2s47.7-21.1,47.7-47.2
		C175.6,103.2,154.5,81.8,128.4,81.8z M142.3,109.7c0,0-5,0-6.5,0c-2.2,0-2.8,0.9-2.8,3.5c0,2,0,5.9,0,5.9h9.4l-0.9,10.2H133v30.5
		h-12.2v-30.5h-6.1v-10.2h6.3c0,0,0-1.5,0-8.5c0-7.8,4.1-11.5,13.1-11.5c1.5,0,8.5,0,8.5,0L142.3,109.7L142.3,109.7z"/>
	<path fill="#FFFFFF" d="M231.4,81.8c-26.1,0-47.7,21.1-47.7,47.2s21.5,47.2,47.7,47.2s47.7-21.1,47.7-47.2
		C278.6,103.2,257.5,81.8,231.4,81.8z M255.3,121c0.7,15.2-10.9,32.6-31.3,32.6c-6.3,0-11.8-1.5-16.8-5c5.7,0.7,11.5-0.9,16.1-4.6
		c-5,0-8.7-3-10.2-7.8c1.5,0.2,3.5,0.2,5-0.2c-5.2-1.3-8.7-5.7-8.7-10.9c1.5,0.9,3,1.5,5,1.5c-5-3-6.3-9.6-3.5-15
		c5.2,6.5,13.7,11.1,22.6,11.5c-1.5-6.7,3.7-13.3,10.9-13.3c3,0,5.9,1.5,8.1,3.5c2.4-0.7,5-1.5,7.2-2.4c-0.9,2.4-2.4,5-5,5.9
		c2.2-0.2,4.4-0.9,6.3-1.5C259.2,117.8,257.5,119.5,255.3,121z"/>
	<path fill="#FFFFFF" d="M151.1,209.4v5.7c0,0.9-0.9,1.5-1.5,1.5h-5.7c-0.9,0-1.5-0.9-1.5-1.5v-5.7c0-0.9,0.9-1.5,1.5-1.5h5.7
		C150.2,207.7,151.1,208.1,151.1,209.4z M129.1,237.7c4.4,0,7.8-3.5,7.8-7.8s-3.5-7.8-7.8-7.8c-4.4,0-7.8,3.5-7.8,7.8
		S124.9,237.7,129.1,237.7z M175.6,229.9c0,26.1-21.5,47.2-47.7,47.2S80.3,256,80.3,229.9s21.8-47.2,47.9-47.2
		S175.6,203.7,175.6,229.9z M155.4,222.2h-15.2c1.5,2.2,2.4,5,2.4,8.1c0,7.4-5.9,13.7-13.7,13.7c-7.4,0-13.7-5.9-13.7-13.7
		c0-2.8,0.9-5.7,2.4-8.1h-15.2v23.9c0,5.7,5,10.7,10.7,10.7h32.2c5.7,0,10.7-5,10.7-10.7L155.4,222.2L155.4,222.2z M129.1,240.5
		c5.7,0,10.7-5,10.7-10.7c0-3-1.5-5.9-3.7-8.1c-0.9-0.7-1.5-1.3-2.4-1.5c-1.5-0.7-2.8-0.9-4.4-0.9c-1.5,0-3,0.2-4.4,0.9
		c-0.9,0.7-1.5,0.9-2.4,1.5c-2.2,2-3.7,5-3.7,8.1C118.8,235.9,123.2,240.5,129.1,240.5z M155.4,213.7c0-5.7-5-10.7-10.7-10.7h-28.5
		v13.3h-2.2v-13.3h-1.3h-0.2v13.3h-2.2v-13.1c-0.7,0-1.3,0.2-1.5,0.7v12.4h-2.2v-11.5c-2.4,2-4.6,5-4.6,8.5v6.7h16.8
		c2.4-2.4,5.9-4.1,9.6-4.1c3.7,0,7.2,1.5,9.6,4.1h17.2L155.4,213.7L155.4,213.7z"/>
	<path fill="#FFFFFF" d="M231.4,182.6c-26.1,0-47.7,21.1-47.7,47.2s21.5,47.2,47.7,47.2S279,256,279,229.9
		C278.8,203.7,257.5,182.6,231.4,182.6z M219,252.9h-10.7v-33.5H219V252.9z M213.5,214.6c-3.5,0-6.3-2.8-6.3-6.3s2.8-6.3,6.3-6.3
		c3.5,0,6.3,2.8,6.3,6.3S217,214.6,213.5,214.6z M257.7,252.9h-10.2c0,0,0-12.8,0-17.6c0-5-1.5-7.4-5.7-7.4c-4.4,0-6.3,2.8-6.3,7.4
		c0,5,0,17.6,0,17.6h-10.2v-33.5h10v4.6c0,0,3-5.2,10.2-5.2c7.2,0,12.2,4.4,12.2,13.3C257.7,240.5,257.7,252.9,257.7,252.9z"/>
</g>
</svg>
