<?xml version="1.0" encoding="utf-8"?>
<!-- Generator: Adobe Illustrator 18.1.0, SVG Export Plug-In . SVG Version: 6.00 Build 0)  -->
<!DOCTYPE svg PUBLIC "-//W3C//DTD SVG 1.1//EN" "http://www.w3.org/Graphics/SVG/1.1/DTD/svg11.dtd">
<svg version="1.1" id="Layer_1" xmlns="http://www.w3.org/2000/svg" xmlns:xlink="http://www.w3.org/1999/xlink" x="0px" y="0px"
	 viewBox="0 0 360 360" enable-background="new 0 0 360 360" xml:space="preserve">
<g>
	<path fill="#EE3124" d="M180,0C81.1,0,0,80.6,0,180s80.6,180,180,180s180-80.6,180-180S279.2,0,180,0L180,0z"/>
	<path fill="#FFFFFF" d="M111.1,134.7h6.8l-3.5-20.3L111.1,134.7z"/>
	<path fill="#FFFFFF" d="M245.6,181.5h-3.1v12.2h4.1c2.4,0,3.7-0.9,3.7-4.1v-3.5C250.2,182.4,249.1,181.5,245.6,181.5z"/>
	<path fill="#FFFFFF" d="M249.7,171.5v-2.2c0-2.8-0.9-4.1-3.7-4.1h-3.5v10.7h2.8C248,175.9,249.7,174.6,249.7,171.5z"/>
	<path fill="#FFFFFF" d="M245.6,137.5c-14.4,0-27,7.2-34.9,18.3l-54.5-23.3c0.2-2,0.2-3.5,0.2-5.2c0-23.1-19-42.1-42.1-42.1
		s-42.1,19-42.1,42.1s19,42.1,42.1,42.1c14.6,0,27.7-7.4,35.1-19l54.3,23.1c-0.2,2-0.7,4.1-0.7,5.9c0,7.8,2.2,14.6,5.7,20.9
		l-17.2,17.7c-5.7-2.8-11.8-4.4-18.3-4.4c-23.3,0-42.1,19-42.1,42.1s19,42.1,42.1,42.1c23.3,0,42.1-19,42.1-42.1
		c0-9.6-3.5-18.7-8.9-25.5l15.3-15.9c6.8,4.4,14.6,7.2,23.3,7.2c23.3,0,42.1-19,42.1-42.1C287.7,156.2,268.9,137.5,245.6,137.5z
		 M127.7,147.1h-7.2l-1.3-7.2h-8.9l-1.3,7.2h-6.5l7.2-39.9h10.7l5.9,32.7v0.2h0.2L127.7,147.1z M184.4,249.3h-6.8v-4.4
		c0-2.8-1.5-4.1-3.7-4.1c-2.2,0-3.7,0.9-3.7,4.1v21.6c0,2.8,1.5,4.1,3.7,4.1c2.2,0,3.7-0.9,3.7-4.1v-5.7h6.8v5.2
		c0,6.5-3.7,10-10.9,10c-7.2,0-10.9-3.7-10.9-10v-20.9c0-6.5,3.7-10,10.9-10c7.2,0,10.9,3.7,10.9,10V249.3z M257.8,189.8
		c0,6.3-3.7,9.4-10.9,9.4h-11.5v-39.9h10.9c7.4,0,10.7,3.1,10.7,9.4v1.5c0,4.1-1.5,6.8-4.6,8.1c4.1,1.3,5.2,4.4,5.2,8.5L257.8,189.8
		L257.8,189.8z"/>
</g>
</svg>
