<?xml version="1.0" encoding="utf-8"?>
<!-- Generator: Adobe Illustrator 18.1.0, SVG Export Plug-In . SVG Version: 6.00 Build 0)  -->
<!DOCTYPE svg PUBLIC "-//W3C//DTD SVG 1.1//EN" "http://www.w3.org/Graphics/SVG/1.1/DTD/svg11.dtd">
<svg version="1.1" id="Layer_1" xmlns="http://www.w3.org/2000/svg" xmlns:xlink="http://www.w3.org/1999/xlink" x="0px" y="0px"
	 viewBox="0 0 360 360" enable-background="new 0 0 360 360" xml:space="preserve">
<g>
	<path fill="#EE3124" d="M180,0C80.7,0,0,80.7,0,180s80.7,180,180,180s180-80.7,180-180S279.3,0,180,0L180,0z"/>
</g>
<path fill="#FFFFFF" d="M262.9,121.5c-17.6-20.9-42.9-32.9-72.7-35c-3-0.2-6.3-0.2-8.9-0.2c-28.1,0-56.4,9.6-77.7,26.3
	c-21.5,16.5-33.5,37.9-33.5,58.5c0,16.8,5,29.2,14.4,36.3c7.8,6.3,16.8,6.7,20.2,6.7c0.7,0,1.3,0,1.5,0h22.6
	c3,14.6,17.2,18.9,25.9,18.9h13.9c1.5,5.7,5,10,10.7,12.8c4.4,2.2,8.9,2.8,11.5,2.8c1.3,3.7,5.2,11.8,15.2,23.7l16.8-14.4
	c-3-3.5-5.2-6.5-7.2-9.4h17.4c8.9,0,54.6-10.2,54.6-59.6C287.5,164.1,278.8,140.2,262.9,121.5z M233.5,111.9h-5.7h-0.2
	c-5.7,0.2-13.9,4.4-13.9,14.4V143c-2.2,1.5-4.6,3.7-6.5,6.7c-1.3-1.3-2.2-2.4-2.4-3.5c0-0.2,0-0.2,0-0.2c2-2.8,6.5-12.4,3-20.9
	c-1.3-3-4.1-6.5-9.6-8.7c5.9-5.2,12.8-9.6,19.8-12.2C223.3,106.7,228.5,109,233.5,111.9z M196.1,148.7c0.2,2,1.5,3.7,2.8,5.2h-3.5
	c0-0.2-0.2-0.2-0.2-0.7c-6.5-8.1-0.2-16.8,0-17.2l-6.7-5c-3.5,5-8.1,17.2,0.2,27.4c0.9,1.3,1.5,4.4,2.2,7.4H177
	c-2-2.8-5.9-10.7-2.2-20.9c1.5-4.4,7.8-13.3,16.1-22v0.7c4.6,0.7,7.4,2.4,8.7,5c2,4.4-0.9,10.9-2.2,12.4
	C196.1,143.2,195.5,145.8,196.1,148.7z M196.1,99.5c3,0.2,6.3,0.9,8.9,1.5c-19.4,11.1-35,32.4-38.3,41.4c-3.7,10-2,18.3,0.2,23.9
	h-10.9c-1.3,0-2.4,0-3.7,0.2c-1.5-4.1-3.7-11.5-3-18.3l-8.5-0.9c-0.7,8.1,1.5,16.5,3,21.5c-0.7,0.2-1.3,0.7-2,0.9
	c-3.7-3.5-10-11.5-7.4-22.6c0.2-0.2,1.3-3.5,4.6-5c3-1.5,7.8-1.5,13.1,0l3.5,1.3l1.5-3.5C158,139.3,171.3,112.3,196.1,99.5z
	 M115.4,176.5c-3.5,2-7.8,1.3-8.5,0.7l0,0l1.3-6.5l-8.5-1.5l-1.3,6.7v0.7c-0.2,3.5,1.3,6.3,4.1,8.1c2.2,1.3,4.6,2,7.4,2
	c3.5,0,6.7-0.9,9.6-2.2c4.1-2.2,9.4-2,12.4-1.3c-0.7,2.4-1.3,4.6-1.3,6.7v0.2h-25.2h-0.2c0,0-6.3,0.2-9.6-3.7
	c-2.8-3.5-3.5-9.4-1.5-17.2l-8.5-2c-2.4,10.9-1.5,18.9,3,24.6c5.2,6.3,13.3,6.7,15.9,6.7c0.2,0,0.2,0,0.7,0h24.8v4.4h-24.8h-0.7
	c0,0-0.2,0-0.9,0c-2.2,0-7.8-0.2-12.8-4.4c-6.5-5-9.6-13.9-9.6-27c0-2.2,0.2-4.4,0.7-6.7l7.2,1.5l1.5-8.5l-6.5-1.3
	c1.3-4.1,3.5-7.8,5.7-11.8c4.1-2.2,11.8-5.9,19.8-5.7c15.2,0.7,23.7-11.1,24.2-11.8l-7.2-5c-0.2,0.2-6.3,8.7-16.8,8.1
	c-3.5,0-6.7,0.2-10,0.9c17.6-18.7,47-32.9,80.7-32.9c0.2,0,0.7,0,0.9,0c-2.2,1.5-4.4,3.5-6.5,5.2c-5.9-0.7-27-2.2-40.5,9.4l5.7,6.5
	c7.4-6.5,18.9-7.4,26.8-7.4c-2.4,2.8-4.6,5.2-6.5,7.8c-2.4-0.7-15-2.4-21.1,4.6l6.5,5.7c2-2.2,5.9-2.4,9.4-2.2
	c-1.3,2.2-2.4,3.7-3,5.2c-6.3-1.5-11.5-0.9-16.1,1.3c-2.8,1.5-4.6,3.5-6.3,5c-11.8-0.2-19.8,6.7-22.4,14.4c-2,5.2-0.9,10,2.8,12.2
	c0.2,0.2,1.3,0.7,0,2.4l7.4,4.4c2.2-3.5,3-10-2.4-13.7c0-0.9,0.2-3.5,2.4-5.9c1.5-1.5,4.1-4.1,8.7-5c-2,12.8,4.6,21.8,9.4,26.8
	C131.5,173.7,122.8,172.6,115.4,176.5z M191.5,236.8h-0.2c-0.7,0-4.1,0-7.2-1.5c-2.4-1.3-3.7-2.8-4.4-5.2h13.3c0,0,0.2,0,0.7,0
	c0.2,0,0.7,0,0.9,0c0.7,2,1.5,4.4,3.5,6.7L191.5,236.8L191.5,236.8z M193.3,221.4h-14.4l0,0H173h-6.5l0,0h-12.6l0,0l0,0
	c-3.5,0-14.4-0.9-14.4-12.8v-5.9l0,0v-13.3c0-1.5,0.7-15,16.8-15h71.2v-8.5h-28.3c0-1.3-0.2-2.4-0.7-3.7h17.2v-8.3H215
	c4.4-5.7,9.6-5.7,10-5.7l0.7-8.5c-0.2,0-1.5,0-3,0v-13.3c0-5,4.4-5.7,5.9-5.9h15v-2c3,2.4,5.9,5,8.5,7.8c-3,0.9-6.3,2.8-8.7,6.3
	l7.2,5c2-2.8,5.9-3.5,7.8-3.5c2,2.8,3.7,5.7,5.7,8.5h-10.7v8.5h15c5,11.5,7.8,23.7,8.1,35.5c-3.7,1.5-9.6,4.1-16.1,7.2v-5.9h-8.5
	v9.6c-4.6,2.2-9.6,4.4-14.6,6.5v-14.6h1.3c0.7,0,5,0,8.1-3c1.5-1.3,3-3.7,3-7.8v-10.2h-8.7v10.2c0,0.9,0,2.4-2.4,2.4h-74
	c-10.9,0-17.4,5.2-17.4,14.4v7.8c0,12.8,12.8,12.8,17.4,12.8h36.1v-8.5h-36.1c-8.9,0-8.9-2-8.9-4.1v-7.8c0-1.5,0-5.9,8.9-5.9h63.3
	v4.6h-62.5v8.5h62.5v4.6c-15,6.5-27.4,12.2-28.9,12.8C196.1,221.4,193.7,221.4,193.3,221.4z M212.6,236.8c-7.4-2.8-9.4-7.2-9.6-9.4
	c0.9-0.2,3-1.5,6.5-2.8c1.3,3,4.1,7.8,9.4,12.2H212.6z M232.9,236.8h-4.6c-9.4-4.4-12.8-10.9-14.4-14.4c1.5-0.7,2.8-1.3,4.6-2
	c2.8,3.5,8.9,10.9,16.5,15.9C233.5,236.6,232.9,236.8,232.9,236.8z M242.2,234.6c-1.5-0.7-3.5-1.5-5-2.8c6.5-0.9,13.7-2.8,19.8-4.6
	C251.8,230.9,246.6,233.5,242.2,234.6z M265.8,219.2c-8.9,3-23.9,7.8-34.6,8.5c-0.7-0.7-1.5-1.5-2.2-2.2
	c18.3-5.7,33.5-11.5,41.6-14.6C269.5,214,267.9,216.8,265.8,219.2z M273.6,204.2c-5.9,2.4-24.6,9.6-48.1,16.8
	c-0.9-0.9-1.5-2-2.2-2.4c15.9-6.7,37-16.5,52-22.6C274.9,198.7,274.2,201.5,273.6,204.2z M251.8,163.9c0.2,0,0.9,0,1.3,0.2
	c0,0,0,0.2,0,0.7c0,8.5,6.3,18.3,17.4,20.2l1.3-8.5c-7.4-1.3-10.2-8.1-10.2-11.8c0-3.5-1.5-5.7-2.8-6.7c-2.8-2.8-6.5-2.8-7.4-2.8h-5
	c0.2-5,0-11.1-2.8-15c-1.5-2-3.7-3-5.9-3c-2.8-0.2-4.1-1.3-4.1-3.5v-6.5h-8.5v6.3c0,0.9,0,5,2.8,8.5c1.5,1.5,4.4,3.7,8.9,4.1
	c0.9,0.9,1.3,5,0.9,9.4H224v8.5H251.8L251.8,163.9z"/>
</svg>
