<?xml version="1.0" encoding="utf-8"?>
<!-- Generator: Adobe Illustrator 18.1.0, SVG Export Plug-In . SVG Version: 6.00 Build 0)  -->
<!DOCTYPE svg PUBLIC "-//W3C//DTD SVG 1.1//EN" "http://www.w3.org/Graphics/SVG/1.1/DTD/svg11.dtd">
<svg version="1.1" id="Layer_1" xmlns="http://www.w3.org/2000/svg" xmlns:xlink="http://www.w3.org/1999/xlink" x="0px" y="0px"
	 viewBox="0 0 360 360" enable-background="new 0 0 360 360" xml:space="preserve">
<path fill="#EE3124" d="M180,0C80.7,0,0,80.7,0,180s80.7,180,180,180s180-80.7,180-180S279.3,0,180,0z M138.6,263.4h-38.3V140h38.3
	V263.4z M119.3,123.6c-12.4,0-22.6-10.2-22.6-22.6s10.2-22.6,22.6-22.6c12.4,0,22.6,10.2,22.6,22.6
	C142.1,113.4,131.9,123.6,119.3,123.6z M282.1,263.4h-37.9c0,0,0-47,0-64.6c0-17.6-6.7-27.6-20.9-27.6c-15.2,0-23.3,10.2-23.3,27.6
	c0,18.9,0,64.6,0,64.6h-36.8V140H200v16.5c0,0,10.9-20.5,37.2-20.5s44.8,15.9,44.8,49.2S282.1,263.4,282.1,263.4z"/>
</svg>
