<?xml version="1.0" encoding="utf-8"?>
<!-- Generator: Adobe Illustrator 18.1.0, SVG Export Plug-In . SVG Version: 6.00 Build 0)  -->
<!DOCTYPE svg PUBLIC "-//W3C//DTD SVG 1.1//EN" "http://www.w3.org/Graphics/SVG/1.1/DTD/svg11.dtd">
<svg version="1.1" id="Layer_1" xmlns="http://www.w3.org/2000/svg" xmlns:xlink="http://www.w3.org/1999/xlink" x="0px" y="0px"
	 viewBox="0 0 336.2 360" enable-background="new 0 0 336.2 360" xml:space="preserve">
<g>
	<path fill="#858585" d="M47.7,0C22.1,0,0.6,20.9,0.6,47.1s20.9,47.1,47.1,47.1s47.1-20.9,47.1-47.1S73.9,0,47.7,0z M62.2,59.9
		c-0.6,1.7-1.7,2.9-3.5,4.1c-1.2,1.2-2.9,2.3-5.2,2.9c-1.7,0.6-4.1,1.2-5.8,1.2c-2.3,0-4.7-0.6-6.4-1.2s-3.5-1.7-5.2-2.9
		c-1.2-1.2-2.3-2.9-2.9-4.7c-0.6-1.7-1.2-4.1-1.2-6.4h8.1c0,1.2,0,2.3,0.6,3.5s0.6,1.7,1.2,2.9c0.6,0.6,1.2,1.2,2.3,1.7
		c1.2,0.6,1.7,0.6,3.5,0.6c1.7,0,3.5-0.6,4.7-1.7c1.2-1.1,1.7-2.9,1.7-4.7c0-1.7-0.6-2.9-1.2-3.5S51.7,50,50.6,50
		c-1.2-0.6-1.7-0.6-2.9-0.6s-2.3,0-3.5,0v-5.8c1.2,0,1.7,0,2.9,0S48.9,43,50,43s1.7-1.2,2.3-1.7c0.6-0.6,1.2-1.7,1.2-2.9
		c0-1.7-0.6-3.5-1.7-4.1c-1.2-1.2-2.3-1.2-4.1-1.2c-2.3,0-4.1,0.6-4.7,2.3c-1.2,1.2-1.7,3.5-1.7,5.2h-8.1c0-2.3,0.6-4.1,1.2-5.8
		s1.7-3.5,2.9-4.7s2.9-2.3,4.7-2.9c1.7-0.6,3.5-1.2,5.8-1.2c1.7,0,3.5,0,5.2,0.6s3.5,1.2,4.7,2.3c1.2,1.1,2.3,2.3,3.5,3.5
		c0.6,1.2,1.2,2.9,1.2,5.2c0,1.7-0.6,4.1-1.7,5.2c-1.1,1.1-2.3,2.9-4.7,3.5l0,0c2.3,0.6,4.1,1.7,5.2,3.5c1.2,1.7,1.7,4.1,1.7,6.4
		C63.4,55.8,62.8,58.2,62.2,59.9z"/>
	<path fill="#575757" d="M168.1,23.8c-22.1,0-43.6,4.1-62.8,12.2c0.6,3.5,1.2,7,1.2,10.5c0,32.6-26.2,58.7-58.7,58.7
		c-7.6,0-14.5-1.2-20.9-4.1C9.9,127.4,0,158.8,0,191.9C0,285,75,360,168.1,360c92.5,0,168.1-75,168.1-168.1
		C336.2,99.5,260.5,23.8,168.1,23.8z M216.3,139.6l5.8-5.8l10.5,10.5l10.5-10.5l5.8,5.8L238.4,150l10.5,10.5l-5.8,5.8l-10.5-10.5
		l-10.5,10.5l-5.8-5.8l10.5-10.5L216.3,139.6z M108.8,122.1l5.8-5.8l10.5,10.5l10.5-10.5l5.8,5.8l-10.5,10.5l10.5,10.5l-5.8,5.8
		L125,138.4l-10.5,10.5l-5.8-5.8l10.5-10.5L108.8,122.1z M139.6,247.2c-4.1,4.1-9.9,4.7-15.1,2.3l-23.3,23.3l-2.9-1.7
		c-1.2-0.6-23.3-15.7-23.3-51.8c0-19.2,8.1-37.2,15.7-50l-7.6-5.2L107,153l-2.3,26.2l-7.6-5.2c-7,11.6-14,28.5-14,45.4
		c0,24.4,11.6,38.4,16.9,43l18-18c-2.3-4.7-1.7-11.1,2.3-15.1c5.2-5.2,13.4-5.2,18.6,0C144.2,233.8,144.2,241.9,139.6,247.2z
		 M147.7,189.6l10.5-10.5l-10.5-10.5l5.8-5.8l10.5,10.5l10.5-10.5l5.8,5.8l-10.5,10.5l10.5,10.5l-5.8,5.8L164,184.9l-10.5,10.5
		L147.7,189.6z M180.3,282.1c-4.7,5.2-12.8,5.8-18.6,1.2c-5.2-4.7-5.8-12.8-1.2-18.6c3.5-4.1,9.3-5.2,14-3.5
		c12.2-16.9,26.2-42.5,26.2-69.2c0-33.2-19.2-59.3-32.6-73.3l-5.8,6.4l-8.1-25l25.6,5.8l-5.8,7c14,15.1,34.9,43.6,35.5,79.7
		c0,29.1-15.1,56.4-27.9,74.4C184.4,271.6,184.4,278,180.3,282.1z M239.6,250.1c1.2,5.2-1.7,11.1-7,14c-6.4,3.5-14,0.6-17.4-5.8
		c-3.5-6.4-0.6-14,5.8-17.4c5.2-2.3,11.1-1.7,14.5,2.3c12.8-8.1,22.1-18.6,18.6-36.6l-8.1,2.9l4.1-26.2l20.4,16.3l-8.7,3.5
		C267.5,228,253.6,241.9,239.6,250.1z"/>
</g>
</svg>
