<?xml version="1.0" encoding="utf-8"?>
<!-- Generator: Adobe Illustrator 18.1.0, SVG Export Plug-In . SVG Version: 6.00 Build 0)  -->
<!DOCTYPE svg PUBLIC "-//W3C//DTD SVG 1.1//EN" "http://www.w3.org/Graphics/SVG/1.1/DTD/svg11.dtd">
<svg version="1.1" id="Layer_1" xmlns="http://www.w3.org/2000/svg" xmlns:xlink="http://www.w3.org/1999/xlink" x="0px" y="0px"
	 viewBox="0 0 360 360" enable-background="new 0 0 360 360" xml:space="preserve">
<g>
	<path fill="#EE3124" d="M179.8,0C80.7,0,0,80.7,0,180.2S80.7,360,179.8,360S360,279.3,360,180.2S279.1,0,179.8,0L179.8,0z"/>
	<g>
		<path fill="#FFFFFF" d="M243,233.3L243,233.3l-6.3,2l2,6.5l6.3-2l0,0L243,233.3L243,233.3z M171.3,186.5l-23.9,90l-0.2,0.7v0.2
			c-0.7,2-2,3-3.5,4.3l0,0c-0.9,0.7-2,0.9-2.8,0.9L133,290l-0.7-10.7c-5.7-6.5-5.2-21.5-2-39.3c1.5-8.9,4.1-18.7,6.7-28.5
			c2.6-9.8,5.7-19.8,8.9-29.1c3.5-10.2,7.2-19.8,10.7-27.6c-0.2-2.8-0.2-5.7-0.2-8c0-3,0.2-6.7,0.2-10c0-2,0-3,0-5.2
			c0-2.2,0.9-4.1,2.2-5.7l0,0c1.5-1.5,3.5-2.2,5.7-2.2h5V84.8h21.5V123h5c2.2,0,4.1,0.9,5.7,2.2l0,0c1.5,1.5,2.2,3.5,2.2,5.7
			c0,2,0,3,0,4.6c0,3,0.2,6.7,0.2,9.6c0,2.2,0,4.6-0.2,7.2c2.2,4.3,4.1,9.3,5.9,14.6c3,8.7,5.7,18,8.5,28.3
			c2.2,8.5,4.1,16.7,5.9,25.2h0.2l4.3-1.3l1.3,4.3l0.7,2l1.5-0.7l10.7-2.8l2.2-0.7l0.7,2.2l1.3,4.3l0,0l0.7,2.2l3,11.1l0.7,2.2
			l1.3,4.3l0.7,2.2l-2.2,0.7l-10.7,2.8l-2,0.7l2.2,8c1.3,4.6,0.7,9.3-2,13c-2,3-4.3,5.7-7.4,6.7l1.5,5.2c0.2,1.5-0.7,3-2.2,3.7l0,0
			c-1.5,0.2-3-0.7-3.5-2.2l-1.5-5.2c-2,0.2-3.5,0-5.2-0.2c-2.2,0-4.1-0.7-5.7-2.2c-3.5-2.2-5.9-5.7-7.2-10l-10.2-38.5l-1.3-4.3
			l3.5-0.9l-11.1-40.7c-0.7,0-1.3,0.2-2,0.2h-11.7C173.5,186.7,172.4,186.7,171.3,186.5L171.3,186.5z M158.9,171.3
			c-1.5,4.3-2.8,8.9-4.3,13.7c-3,9.3-5.9,18.9-8.7,28.5c-2.8,9.6-5,18.9-6.5,27.6c-3,16.5-4.1,28.9-0.7,31.7l24.6-92
			C161.5,178.3,159.8,175,158.9,171.3L158.9,171.3z M180,157.8c2,0,3.5,0.7,4.6,2c1.3,1.3,2,2.8,2,4.6c0,2-0.7,3.5-2,4.6
			c-1.3,1.3-2.8,2-4.6,2c-2,0-3.5-0.7-4.6-2c-1.1-1.3-2-2.8-2-4.6c0-2,0.7-3.5,2-4.6C176.7,158.5,178.3,157.8,180,157.8L180,157.8z
			 M182,163c-0.2-0.2-0.9-0.7-1.5-0.7c-0.7,0-0.9,0.2-1.5,0.7c-0.2,0.2-0.7,0.9-0.7,1.5c0,0.7,0.2,1.3,0.7,1.5
			c0.2,0.2,0.9,0.7,1.5,0.7c0.7,0,0.9-0.2,1.5-0.7c0.2-0.2,0.7-0.9,0.7-1.5C182.6,163.9,182.2,163.5,182,163L182,163z M201.5,170.9
			c-0.9,4.3-2.8,8-5,11.1l11.5,42.6l7.4-2c-2-8.5-3.7-16.7-5.9-25.2C206.7,188,204.3,178.9,201.5,170.9L201.5,170.9z M174.8,123h4.1
			V90.2h-4.1V123L174.8,123z M194.6,132.2h-28.9c0,0.9,0,2.4-0.2,4.3c0,2.4-0.2,5.7-0.2,10c0,13.9,0.9,31.3,9.3,31.3h11.7
			c7.4,0,8.7-18.7,8.7-32.6c0-4.1,0-6.7-0.2-9.3L194.6,132.2L194.6,132.2z M222,230.2l-15.4,4.1l8.9,33.9c0.7,2.2,2,4.1,3.7,4.6
			c2,0.9,4.1,1.5,5.9,0.9c2.2-0.7,3.7-2,4.6-3.7c0.9-2,1.5-4.1,0.9-5.9L222,230.2L222,230.2z M241.3,226.7l-6.3,2l0.7,2.2l6.3-2
			L241.3,226.7L241.3,226.7z M239.8,246.1l0.7,2.2l6.3-2l-0.7-2.2L239.8,246.1L239.8,246.1z"/>
	</g>
</g>
</svg>
