<?xml version="1.0" encoding="utf-8"?>
<!-- Generator: Adobe Illustrator 18.1.0, SVG Export Plug-In . SVG Version: 6.00 Build 0)  -->
<!DOCTYPE svg PUBLIC "-//W3C//DTD SVG 1.1//EN" "http://www.w3.org/Graphics/SVG/1.1/DTD/svg11.dtd">
<svg version="1.1" id="Layer_1" xmlns="http://www.w3.org/2000/svg" xmlns:xlink="http://www.w3.org/1999/xlink" x="0px" y="0px"
	 viewBox="0 0 336.9 360" enable-background="new 0 0 336.9 360" xml:space="preserve">
<g>
	<path fill="#858585" d="M48.6,0C23,0,1.5,20.9,1.5,47.1c0,25.6,20.9,47.1,47.1,47.1c25.6,0,47.1-20.9,47.1-47.1S74.8,0,48.6,0z
		 M64.3,66.9H33.5c0-2.3,0.6-4.7,1.2-6.4c0.6-1.7,1.7-3.5,2.9-4.7s2.9-2.9,4.1-4.1c1.7-1.2,3.5-2.3,5.2-3.5c1.2-0.6,1.7-1.2,2.9-1.7
		c1.2-0.6,1.7-1.2,2.9-2.3c0.6-0.6,1.7-1.7,2.3-2.9s1.2-2.3,1.2-3.5c0-1.7-0.6-3.5-1.7-4.7s-2.9-1.7-4.7-1.7c-1.2,0-2.3,0.6-3.5,1.2
		c-0.6,0.6-1.7,1.2-2.3,2.3c-0.6,1.2-1.2,1.7-1.2,2.9s-0.6,2.3-0.6,3.5h-8.1c0-2.3,0-4.7,0.6-7s1.7-4.1,2.9-5.2
		c1.2-1.7,2.9-2.9,4.7-3.5c1.7-0.6,4.1-1.2,7-1.2c1.7,0,3.5,0.6,5.2,1.2s3.5,1.7,4.7,2.3c1.2,1.2,2.3,2.3,2.9,4.1
		c0.6,1.7,1.2,3.5,1.2,5.8c0,1.7,0,2.9-0.6,4.1c-0.6,1.2-1.2,2.3-1.7,3.5c-0.6,1.2-1.7,1.7-2.3,2.9c-1.2,0.6-1.7,1.7-2.9,2.3
		s-2.3,1.2-3.5,2.3c-1.2,0.6-2.3,1.2-3.5,2.3c-1.2,0.6-2.3,1.7-2.9,2.3c-1.2,0.6-1.7,1.7-2.9,2.9h21.5v6.5H64.3z"/>
	<g>
		<polygon fill="#28457D" points="136.4,205.9 148.6,212.3 148.6,204.1 136.4,197.7 		"/>
		<polygon fill="#28457D" points="136.4,225.7 148.6,232.6 148.6,224.5 136.4,218.1 		"/>
		<polygon fill="#28457D" points="136.4,246 145.2,250.7 148.6,250.7 148.6,244.8 136.4,238.4 		"/>
		<polygon fill="#28457D" points="130,132 130,113.4 130,113.4 130,113.4 130,109.9 97.5,132 		"/>
		<polygon fill="#28457D" points="136.4,185.5 148.6,191.9 148.6,184.4 136.4,177.4 		"/>
		<polygon fill="#28457D" points="136.4,165.2 148.6,171.6 148.6,164 136.4,157 		"/>
		<polygon fill="#28457D" points="136.4,124.5 148.6,130.9 148.6,123.3 136.4,116.9 		"/>
		<path fill="#28457D" d="M169,23.8c-22.1,0-43.6,4.1-62.8,12.2c0.6,3.5,1.2,7,1.2,10.5c0,32.6-26.2,58.7-58.7,58.7
			c-7.6,0-14.5-1.2-20.9-4.1C10.9,127.3,1,158.7,1,191.8C0.9,285,75.9,360,169,360s168.1-75,168.1-168.1
			C337.1,99.5,261.5,23.8,169,23.8z M170.7,278h-57v-14h57V278z M249.3,190.8L235.9,210v5.8c5.2,1.2,9.3,5.8,9.3,11.6
			c0,6.4-5.2,11.6-11.6,11.6s-11.6-5.2-11.6-11.6c0-1.7,1.2-2.9,2.9-2.9s2.9,1.2,2.9,2.9c0,3.5,2.9,6.4,6.4,6.4s6.4-2.9,6.4-6.4
			s-2.9-6.4-6.4-6.4h-2.9v-11l-13.4-19.2c-0.6-0.6-0.6-1.7,0-2.9s1.2-1.7,2.3-1.7h27.3c1.2,0,1.7,0.6,2.3,1.7
			C249.8,189,249.8,190.2,249.3,190.8z M244,151.2v30.2h-7v-30.2h-7v30.2h-7v-30.2h-60.5V132H237l-81.4-22.7V257h-25v-1.7l0,0l0,0
			V235l0,0l0,0v-19.8l0,0l0,0v-20.4l0,0l0,0v-20.4l0,0l0,0V154l0,0l0,0v-2.9H91.1V132h1.7l37.8-25.6v-0.6h25l0,0l91.9,25.6h0.6l0,0
			l0,0l0,0l11.1,19.2H244V151.2z"/>
		<polygon fill="#28457D" points="136.4,144.8 148.6,151.2 148.6,143.7 136.4,136.7 		"/>
	</g>
</g>
</svg>
