<?xml version="1.0" encoding="utf-8"?>
<!-- Generator: Adobe Illustrator 18.1.0, SVG Export Plug-In . SVG Version: 6.00 Build 0)  -->
<!DOCTYPE svg PUBLIC "-//W3C//DTD SVG 1.1//EN" "http://www.w3.org/Graphics/SVG/1.1/DTD/svg11.dtd">
<svg version="1.1" id="Layer_1" xmlns="http://www.w3.org/2000/svg" xmlns:xlink="http://www.w3.org/1999/xlink" x="0px" y="0px"
	 viewBox="0 0 360 360" enable-background="new 0 0 360 360" xml:space="preserve">
<path fill="#EE3124" d="M180,0C80.7,0,0,80.7,0,180s80.7,180,180,180s180-80.7,180-180S279.3,0,180,0z M153,57.2l33.3,66.2
	l-20.5,10.2l-33.3-66.2L153,57.2z M124.9,211.1C68.1,97.9,106.7,80.7,120.4,73.8l34,67.3c-21.1,11.5,23.1,99.5,44.4,89l34,67.3
	C217.2,303.8,182,325,124.9,211.1z M244.6,290.8l-33.3-66.2l20.5-10.2l33.3,66.2L244.6,290.8z"/>
</svg>
