<?xml version="1.0" encoding="utf-8"?>
<!-- Generator: Adobe Illustrator 18.1.0, SVG Export Plug-In . SVG Version: 6.00 Build 0)  -->
<!DOCTYPE svg PUBLIC "-//W3C//DTD SVG 1.1//EN" "http://www.w3.org/Graphics/SVG/1.1/DTD/svg11.dtd">
<svg version="1.1" id="Layer_1" xmlns="http://www.w3.org/2000/svg" xmlns:xlink="http://www.w3.org/1999/xlink" x="0px" y="0px"
	 viewBox="0 0 360 360" enable-background="new 0 0 360 360" xml:space="preserve">
<g>
	<path fill="#EE3124" d="M179.8,0.2C80.7,0.2,0,80.9,0,180s80.7,179.8,179.8,179.8S360,279.1,360,180S279.1,0.2,179.8,0.2L179.8,0.2
		z"/>
	<g>
		<path fill="#FFFFFF" d="M229.8,120c-2,0-3.7,1.5-3.7,3.7v112.4c0,2,1.5,3.7,3.7,3.7H287c2,0,3.7-1.5,3.7-3.7V123.7
			c0-2-1.5-3.7-3.7-3.7H229.8z M257.2,224.1c-2.8,0-5.2-2.2-5.2-5.2c0-3,2.4-5.2,5.2-5.2c2.8,0,5.2,2.2,5.2,5.2
			C262.4,222,260,224.1,257.2,224.1z M284.8,155.4c-1.3,0.7-4.1,0.9-5.9,0.9h-39.8c-2,0-4.6-0.2-5.9-0.9c0,0,0,0,0-1.3
			c0-1.3,0-1.3,0-1.3c1.3-0.7,4.1-0.9,5.9-0.9h39.8c2,0,4.6,0.2,5.9,0.9c0,0,0,0,0,1.3C284.8,155.4,284.8,155.4,284.8,155.4z
			 M284.8,143c-1.3,0.7-4.1,0.9-5.9,0.9h-39.8c-2,0-4.6-0.2-5.9-0.9c0,0,0,0,0-1.3c0-1.3,0-1.3,0-1.3c1.3-0.7,4.1-0.9,5.9-0.9h39.8
			c2,0,4.6,0.7,5.9,0.9c0,0,0,0,0,1.3C284.8,143,284.8,143,284.8,143z M284.8,132c-1.3,0.7-4.1,0.9-5.9,0.9h-39.8
			c-2,0-4.6-0.7-5.9-0.9c0,0,0,0,0-1.3s0-1.3,0-1.3c1.3-0.7,4.1-0.9,5.9-0.9h39.8c2,0,4.6,0.2,5.9,0.9c0,0,0,0,0,1.3
			S284.8,132,284.8,132z M213.7,125.9H69.3c-2,0-3.5,1.5-3.5,3.5v86.3c0,2,1.5,3.5,3.5,3.5h55.9l-0.9,12.2h-15.2
			c-0.9,0-2,0.7-2.2,1.3l-3.5,5.7c-0.2,0.7,0,1.3,0.7,1.3h75.4c0.9,0,1.3-0.7,0.7-1.3l-3.5-5.7c-0.2-0.7-1.5-1.3-2.4-1.3h-15.7
			l-0.9-12.2h55.9c2,0,3.5-1.5,3.5-3.5v-86.3C217.4,127.8,215.9,125.9,213.7,125.9z M211.5,207c0,0.9-0.7,1.5-1.5,1.5H73.7
			c-0.9,0-1.5-0.7-1.5-1.5v-73.7c0-0.9,0.7-1.5,1.5-1.5H210c0.9,0,1.5,0.7,1.5,1.5V207z"/>
	</g>
</g>
</svg>
