<?xml version="1.0" encoding="utf-8"?>
<!-- Generator: Adobe Illustrator 18.1.0, SVG Export Plug-In . SVG Version: 6.00 Build 0)  -->
<!DOCTYPE svg PUBLIC "-//W3C//DTD SVG 1.1//EN" "http://www.w3.org/Graphics/SVG/1.1/DTD/svg11.dtd">
<svg version="1.1" id="Layer_1" xmlns="http://www.w3.org/2000/svg" xmlns:xlink="http://www.w3.org/1999/xlink" x="0px" y="0px"
	 viewBox="97.3 97.3 165.4 165.4" enable-background="new 97.3 97.3 165.4 165.4" xml:space="preserve">
<g>
	<path fill="#EE3124" d="M180,97.3c-45.6,0-82.7,37.1-82.7,82.7s37.1,82.7,82.7,82.7s82.7-37.1,82.7-82.7S225.6,97.3,180,97.3
		L180,97.3z"/>
</g>
<g>
	<path fill="#FFFFFF" d="M162,164.4c-0.1-3.1-2-5.7-5.6-5.7c-3.7,0-5.4,2.6-5.6,5.7C150.9,176.3,162,176.1,162,164.4L162,164.4z
		 M142.4,187.7c0-3.3,0.1-6.9,1.6-9.6c1.3-2.4,3.7-4.7,6.7-4.7h1l3.6,5.4v-2.7l-0.6-0.7l1.6-1.1l1.6,1.1l-0.6,0.7v2.7l3.6-5.4h1
		c2.9,0,5.4,2.3,6.7,4.7c1.4,2.7,1.6,6.3,1.6,9.6c0,4.9,0,6.9,0,11.6c0.1,1.7-2.9,2.6-4.6,1.9V186c0-4.9-2.1-7.6-1.7-6.3
		c0.3,1,0.6,2,0.7,3c0.1,1,0.1,2.1,0.1,3.1v15.9l-0.3,20.6c0,4.3-5.7,5.3-8.1,2.4c-2.4,3-8.1,1.9-8.1-2.4L148,213h5.7v-13.4h-5.9
		V186c0-1.1,0-2.1,0.1-3.1s0.3-2,0.7-3c0.4-1.3-1.7,1.4-1.7,6.3v13.6h-4.6V187.7L142.4,187.7z M152.7,200.6h-16.4V212h16.4V200.6
		L152.7,200.6z"/>
	<path fill="#FFFFFF" d="M163.4,161.9c1.4-2.9,3-6.7,2.9-9.4c-1.9-2.3-3-5.3-3-8.3c0-8.6,8.3-14.9,17.6-14.9
		c9.1,0,17.6,6.1,17.6,14.9c0,9-9.9,17.3-23.3,14C172.7,159.7,167.3,161.1,163.4,161.9z M200.3,162c2.6-3.1,2.9-7.7,0-11.3
		c-3,6.6-10.1,11.6-19.4,11.6c2.7,3.1,7.6,5,13.6,3.6c1.7,1,5.3,2.1,7.9,2.6C201.4,166.4,200.3,163.9,200.3,162z"/>
	<path fill="#FFFFFF" d="M196.3,188.1c0-3.1,0.1-6.7,1.6-9.4c1.3-2.4,3.7-4.7,6.6-4.7h1c2.6,2.4,6.4,2.4,9,0h1
		c2.9,0,5.3,2.3,6.6,4.6c1.4,2.7,1.6,6.1,1.6,9.4c0,4.7,0,6.7,0,11.4c0.1,2-4.1,2.7-5.4,1.3l-0.3,21.4c0,4.3-5.6,5.3-8,2.3
		c-2.4,2.9-8,1.9-8-2.3l-0.3-21.4c-1.1,1.4-5.6,0.9-5.4-1.3C196.3,195,196.3,193,196.3,188.1L196.3,188.1z M216.1,164.7
		c-0.1-3.3-2.6-6.1-6.1-6.1c-3.9,0-6.1,2.7-6.1,6C203.7,177.6,216.1,177.3,216.1,164.7L216.1,164.7z"/>
</g>
</svg>
